<svg xmlns="http://www.w3.org/2000/svg" xmlns:xlink="http://www.w3.org/1999/xlink" contentStyleType="text/css" height="716px" preserveAspectRatio="none" style="width:1058px;height:716px;background:#FEFEFE;" version="1.1" viewBox="0 0 1058 716" width="1058px" zoomAndPan="magnify"><title>- Admin cria jogo via fila (alternativa ao endpoint tradicional)</title><defs/><g><rect fill="#FEFEFE" height="716" style="stroke:none;stroke-width:1;" width="1058" x="0" y="0"/><text fill="#000000" font-family="sans-serif" font-size="14" font-weight="bold" lengthAdjust="spacing" textLength="402.9512" x="326.053" y="29.5332">- Admin cria jogo via fila (alternativa ao endpoint tradicional)</text><rect fill="#FFFFFF" height="91.0547" style="stroke:#181818;stroke-width:1;" width="10" x="244.8628" y="235.3281"/><rect fill="#FFFFFF" height="14" style="stroke:#181818;stroke-width:1;" width="10" x="411.1626" y="282.0313"/><rect fill="#FFFFFF" height="91.0547" style="stroke:#181818;stroke-width:1;" width="10" x="744.9409" y="439.7891"/><rect fill="#FFFFFF" height="14" style="stroke:#181818;stroke-width:1;" width="10" x="877.9131" y="486.4922"/><line style="stroke:#181818;stroke-width:0.5;stroke-dasharray:5.0,5.0;" x1="27" x2="27" y1="121.2188" y2="634.25"/><line style="stroke:#181818;stroke-width:0.5;stroke-dasharray:5.0,5.0;" x1="249.0732" x2="249.0732" y1="121.2188" y2="634.25"/><line style="stroke:#181818;stroke-width:0.5;stroke-dasharray:5.0,5.0;" x1="415.4248" x2="415.4248" y1="121.2188" y2="634.25"/><line style="stroke:#181818;stroke-width:0.5;stroke-dasharray:5.0,5.0;" x1="572.9004" x2="572.9004" y1="121.2188" y2="634.25"/><line style="stroke:#181818;stroke-width:0.5;stroke-dasharray:5.0,5.0;" x1="749.8789" x2="749.8789" y1="121.2188" y2="634.25"/><line style="stroke:#181818;stroke-width:0.5;stroke-dasharray:5.0,5.0;" x1="882.0029" x2="882.0029" y1="121.2188" y2="634.25"/><text fill="#000000" font-family="sans-serif" font-size="14" lengthAdjust="spacing" textLength="39.6826" x="5" y="118.1426">Admin</text><ellipse cx="27.8413" cy="52.1094" fill="#FFC107" rx="8" ry="8" style="stroke:#181818;stroke-width:0.5;"/><path d="M27.8413,60.1094 L27.8413,87.1094 M14.8413,68.1094 L40.8413,68.1094 M27.8413,87.1094 L14.8413,102.1094 M27.8413,87.1094 L40.8413,102.1094 " fill="none" style="stroke:#181818;stroke-width:0.5;"/><text fill="#000000" font-family="sans-serif" font-size="14" lengthAdjust="spacing" textLength="39.6826" x="5" y="647.7832">Admin</text><ellipse cx="27.8413" cy="659.3594" fill="#FFC107" rx="8" ry="8" style="stroke:#181818;stroke-width:0.5;"/><path d="M27.8413,667.3594 L27.8413,694.3594 M14.8413,675.3594 L40.8413,675.3594 M27.8413,694.3594 L14.8413,709.3594 M27.8413,694.3594 L40.8413,709.3594 " fill="none" style="stroke:#181818;stroke-width:0.5;"/><rect fill="#C8E6C9" height="31.6094" rx="2.5" ry="2.5" style="stroke:#181818;stroke-width:0.5;" width="85.5791" x="207.0732" y="88.6094"/><text fill="#000000" font-family="sans-serif" font-size="14" lengthAdjust="spacing" textLength="71.5791" x="214.0732" y="110.1426">Games API</text><rect fill="#C8E6C9" height="31.6094" rx="2.5" ry="2.5" style="stroke:#181818;stroke-width:0.5;" width="85.5791" x="207.0732" y="633.25"/><text fill="#000000" font-family="sans-serif" font-size="14" lengthAdjust="spacing" textLength="71.5791" x="214.0732" y="654.7832">Games API</text><text fill="#000000" font-family="sans-serif" font-size="14" lengthAdjust="spacing" textLength="103.4756" x="361.4248" y="118.1426">Outbox (Games)</text><path d="M398.1626,67.6094 C398.1626,57.6094 416.1626,57.6094 416.1626,57.6094 C416.1626,57.6094 434.1626,57.6094 434.1626,67.6094 L434.1626,93.6094 C434.1626,103.6094 416.1626,103.6094 416.1626,103.6094 C416.1626,103.6094 398.1626,103.6094 398.1626,93.6094 L398.1626,67.6094 " fill="#E8F5E9" style="stroke:#181818;stroke-width:1.5;"/><path d="M398.1626,67.6094 C398.1626,77.6094 416.1626,77.6094 416.1626,77.6094 C416.1626,77.6094 434.1626,77.6094 434.1626,67.6094 " fill="none" style="stroke:#181818;stroke-width:1.5;"/><text fill="#000000" font-family="sans-serif" font-size="14" lengthAdjust="spacing" textLength="103.4756" x="361.4248" y="647.7832">Outbox (Games)</text><path d="M398.1626,660.8594 C398.1626,650.8594 416.1626,650.8594 416.1626,650.8594 C416.1626,650.8594 434.1626,650.8594 434.1626,660.8594 L434.1626,686.8594 C434.1626,696.8594 416.1626,696.8594 416.1626,696.8594 C416.1626,696.8594 398.1626,696.8594 398.1626,686.8594 L398.1626,660.8594 " fill="#E8F5E9" style="stroke:#181818;stroke-width:1.5;"/><path d="M398.1626,660.8594 C398.1626,670.8594 416.1626,670.8594 416.1626,670.8594 C416.1626,670.8594 434.1626,670.8594 434.1626,660.8594 " fill="none" style="stroke:#181818;stroke-width:1.5;"/><path d="M485.9004,93.6094 L660.8789,93.6094 C665.8789,93.6094 665.8789,107.4141 665.8789,107.4141 C665.8789,107.4141 665.8789,121.2188 660.8789,121.2188 L485.9004,121.2188 C480.9004,121.2188 480.9004,107.4141 480.9004,107.4141 C480.9004,107.4141 480.9004,93.6094 485.9004,93.6094 " fill="#A5D6A7" style="stroke:#181818;stroke-width:0.5;"/><path d="M660.8789,93.6094 C655.8789,93.6094 655.8789,107.4141 655.8789,107.4141 C655.8789,121.2188 660.8789,121.2188 660.8789,121.2188 " fill="none" style="stroke:#181818;stroke-width:0.5;"/><text fill="#000000" font-family="sans-serif" font-size="14" lengthAdjust="spacing" textLength="164.9785" x="485.9004" y="113.1426">SQS games-events-queue</text><path d="M485.9004,633.25 L660.8789,633.25 C665.8789,633.25 665.8789,647.0547 665.8789,647.0547 C665.8789,647.0547 665.8789,660.8594 660.8789,660.8594 L485.9004,660.8594 C480.9004,660.8594 480.9004,647.0547 480.9004,647.0547 C480.9004,647.0547 480.9004,633.25 485.9004,633.25 " fill="#A5D6A7" style="stroke:#181818;stroke-width:0.5;"/><path d="M660.8789,633.25 C655.8789,633.25 655.8789,647.0547 655.8789,647.0547 C655.8789,660.8594 660.8789,660.8594 660.8789,660.8594 " fill="none" style="stroke:#181818;stroke-width:0.5;"/><text fill="#000000" font-family="sans-serif" font-size="14" lengthAdjust="spacing" textLength="164.9785" x="485.9004" y="652.7832">SQS games-events-queue</text><rect fill="#81C784" height="31.6094" rx="2.5" ry="2.5" style="stroke:#181818;stroke-width:0.5;" width="108.124" x="695.8789" y="88.6094"/><text fill="#000000" font-family="sans-serif" font-size="14" lengthAdjust="spacing" textLength="94.124" x="702.8789" y="110.1426">Games Worker</text><rect fill="#81C784" height="31.6094" rx="2.5" ry="2.5" style="stroke:#181818;stroke-width:0.5;" width="108.124" x="695.8789" y="633.25"/><text fill="#000000" font-family="sans-serif" font-size="14" lengthAdjust="spacing" textLength="94.124" x="702.8789" y="654.7832">Games Worker</text><text fill="#000000" font-family="sans-serif" font-size="14" lengthAdjust="spacing" textLength="91.8203" x="834.0029" y="118.1426">Mongo Games</text><path d="M864.9131,67.6094 C864.9131,57.6094 882.9131,57.6094 882.9131,57.6094 C882.9131,57.6094 900.9131,57.6094 900.9131,67.6094 L900.9131,93.6094 C900.9131,103.6094 882.9131,103.6094 882.9131,103.6094 C882.9131,103.6094 864.9131,103.6094 864.9131,93.6094 L864.9131,67.6094 " fill="#4CAF50" style="stroke:#181818;stroke-width:1.5;"/><path d="M864.9131,67.6094 C864.9131,77.6094 882.9131,77.6094 882.9131,77.6094 C882.9131,77.6094 900.9131,77.6094 900.9131,67.6094 " fill="none" style="stroke:#181818;stroke-width:1.5;"/><text fill="#000000" font-family="sans-serif" font-size="14" lengthAdjust="spacing" textLength="91.8203" x="834.0029" y="647.7832">Mongo Games</text><path d="M864.9131,660.8594 C864.9131,650.8594 882.9131,650.8594 882.9131,650.8594 C882.9131,650.8594 900.9131,650.8594 900.9131,660.8594 L900.9131,686.8594 C900.9131,696.8594 882.9131,696.8594 882.9131,696.8594 C882.9131,696.8594 864.9131,696.8594 864.9131,686.8594 L864.9131,660.8594 " fill="#4CAF50" style="stroke:#181818;stroke-width:1.5;"/><path d="M864.9131,660.8594 C864.9131,670.8594 882.9131,670.8594 882.9131,670.8594 C882.9131,670.8594 900.9131,670.8594 900.9131,660.8594 " fill="none" style="stroke:#181818;stroke-width:1.5;"/><rect fill="#FFFFFF" height="91.0547" style="stroke:#181818;stroke-width:1;" width="10" x="244.8628" y="235.3281"/><rect fill="#FFFFFF" height="14" style="stroke:#181818;stroke-width:1;" width="10" x="411.1626" y="282.0313"/><rect fill="#FFFFFF" height="91.0547" style="stroke:#181818;stroke-width:1;" width="10" x="744.9409" y="439.7891"/><rect fill="#FFFFFF" height="14" style="stroke:#181818;stroke-width:1;" width="10" x="877.9131" y="486.4922"/><polygon fill="#181818" points="232.8628,231.3281,242.8628,235.3281,232.8628,239.3281,236.8628,235.3281" style="stroke:#181818;stroke-width:1;"/><line style="stroke:#181818;stroke-width:2;" x1="27.8413" x2="238.8628" y1="235.3281" y2="235.3281"/><text fill="#000000" font-family="sans-serif" font-size="13" lengthAdjust="spacing" textLength="35.3945" x="34.8413" y="148.7139">POST</text><text fill="#000000" font-family="sans-serif" font-size="13" lengthAdjust="spacing" textLength="198.0215" x="34.8413" y="165.0654">/games/api/Game/{gameId}/queue</text><text fill="#000000" font-family="sans-serif" font-size="13" lengthAdjust="spacing" textLength="36.1309" x="34.8413" y="181.417">(body:</text><text fill="#000000" font-family="sans-serif" font-size="13" lengthAdjust="spacing" textLength="3.6118" x="70.9722" y="181.417">&#160;</text><text fill="#000000" font-family="sans-serif" font-size="13" lengthAdjust="spacing" textLength="38.2891" x="74.584" y="181.417">Name,</text><text fill="#000000" font-family="sans-serif" font-size="13" lengthAdjust="spacing" textLength="68.6372" x="34.8413" y="197.7686">Description,</text><text fill="#000000" font-family="sans-serif" font-size="13" lengthAdjust="spacing" textLength="56.3608" x="34.8413" y="214.1201">Category,</text><text fill="#000000" font-family="sans-serif" font-size="13" lengthAdjust="spacing" textLength="33.23" x="34.8413" y="230.4717">Price,</text><text fill="#000000" font-family="sans-serif" font-size="13" lengthAdjust="spacing" textLength="3.6118" x="68.0713" y="230.4717">&#160;</text><text fill="#000000" font-family="sans-serif" font-size="13" lengthAdjust="spacing" textLength="15.1646" x="71.6831" y="230.4717">...)</text><polygon fill="#181818" points="399.1626,278.0313,409.1626,282.0313,399.1626,286.0313,403.1626,282.0313" style="stroke:#181818;stroke-width:1;"/><line style="stroke:#181818;stroke-width:2;" x1="254.8628" x2="405.1626" y1="282.0313" y2="282.0313"/><text fill="#000000" font-family="sans-serif" font-size="13" lengthAdjust="spacing" textLength="38.2891" x="261.8628" y="260.8232">persist</text><text fill="#000000" font-family="sans-serif" font-size="13" lengthAdjust="spacing" textLength="137.2998" x="261.8628" y="277.1748">CreateGameRequested</text><polygon fill="#181818" points="265.8628,292.0313,255.8628,296.0313,265.8628,300.0313,261.8628,296.0313" style="stroke:#181818;stroke-width:1;"/><line style="stroke:#181818;stroke-width:2;stroke-dasharray:2.0,2.0;" x1="259.8628" x2="415.1626" y1="296.0313" y2="296.0313"/><polygon fill="#181818" points="38.8413,322.3828,28.8413,326.3828,38.8413,330.3828,34.8413,326.3828" style="stroke:#181818;stroke-width:1;"/><line style="stroke:#181818;stroke-width:2;stroke-dasharray:2.0,2.0;" x1="32.8413" x2="248.8628" y1="326.3828" y2="326.3828"/><text fill="#000000" font-family="sans-serif" font-size="13" lengthAdjust="spacing" textLength="21.6899" x="44.8413" y="321.5264">202</text><text fill="#000000" font-family="sans-serif" font-size="13" lengthAdjust="spacing" textLength="3.6118" x="66.5313" y="321.5264">&#160;</text><text fill="#000000" font-family="sans-serif" font-size="13" lengthAdjust="spacing" textLength="54.2026" x="70.1431" y="321.5264">Accepted</text><path d="M345,339.3828 L345,365.3828 L644,365.3828 L644,349.3828 L634,339.3828 L345,339.3828 " fill="#FEFFDD" style="stroke:#181818;stroke-width:0.5;"/><path d="M634,339.3828 L634,349.3828 L644,349.3828 L634,339.3828 " fill="#FEFFDD" style="stroke:#181818;stroke-width:0.5;"/><text fill="#000000" font-family="sans-serif" font-size="13" lengthAdjust="spacing" textLength="179.9307" x="400.2617" y="357.8779">Outbox Publisher (background)</text><polygon fill="#181818" points="561.3896,405.4375,571.3896,409.4375,561.3896,413.4375,565.3896,409.4375" style="stroke:#181818;stroke-width:1;"/><line style="stroke:#181818;stroke-width:2;" x1="416.1626" x2="567.3896" y1="409.4375" y2="409.4375"/><text fill="#000000" font-family="sans-serif" font-size="13" lengthAdjust="spacing" textLength="41.1963" x="423.1626" y="388.2295">publish</text><text fill="#000000" font-family="sans-serif" font-size="13" lengthAdjust="spacing" textLength="52.749" x="423.1626" y="404.5811">message</text><polygon fill="#181818" points="732.9409,435.7891,742.9409,439.7891,732.9409,443.7891,736.9409,439.7891" style="stroke:#181818;stroke-width:1;"/><line style="stroke:#181818;stroke-width:2;" x1="573.3896" x2="738.9409" y1="439.7891" y2="439.7891"/><text fill="#000000" font-family="sans-serif" font-size="13" lengthAdjust="spacing" textLength="99.7153" x="580.3896" y="434.9326">ReceiveMessage</text><polygon fill="#181818" points="865.9131,482.4922,875.9131,486.4922,865.9131,490.4922,869.9131,486.4922" style="stroke:#181818;stroke-width:1;"/><line style="stroke:#181818;stroke-width:2;" x1="754.9409" x2="871.9131" y1="486.4922" y2="486.4922"/><text fill="#000000" font-family="sans-serif" font-size="13" lengthAdjust="spacing" textLength="36.1309" x="761.9409" y="465.2842">upsert</text><text fill="#000000" font-family="sans-serif" font-size="13" lengthAdjust="spacing" textLength="3.6118" x="798.0718" y="465.2842">&#160;</text><text fill="#000000" font-family="sans-serif" font-size="13" lengthAdjust="spacing" textLength="35.4009" x="801.6836" y="465.2842">Game</text><text fill="#000000" font-family="sans-serif" font-size="13" lengthAdjust="spacing" textLength="8.6582" x="761.9409" y="481.6357">()</text><polygon fill="#181818" points="765.9409,496.4922,755.9409,500.4922,765.9409,504.4922,761.9409,500.4922" style="stroke:#181818;stroke-width:1;"/><line style="stroke:#181818;stroke-width:2;stroke-dasharray:2.0,2.0;" x1="759.9409" x2="881.9131" y1="500.4922" y2="500.4922"/><polygon fill="#181818" points="584.3896,526.8438,574.3896,530.8438,584.3896,534.8438,580.3896,530.8438" style="stroke:#181818;stroke-width:1;"/><line style="stroke:#181818;stroke-width:2;" x1="578.3896" x2="748.9409" y1="530.8438" y2="530.8438"/><text fill="#000000" font-family="sans-serif" font-size="13" lengthAdjust="spacing" textLength="90.3271" x="590.3896" y="525.9873">DeleteMessage</text><path d="M887,543.8438 L887,618.8438 L1051,618.8438 L1051,553.8438 L1041,543.8438 L887,543.8438 " fill="#FEFFDD" style="stroke:#181818;stroke-width:0.5;"/><path d="M1041,543.8438 L1041,553.8438 L1051,553.8438 L1041,543.8438 " fill="#FEFFDD" style="stroke:#181818;stroke-width:0.5;"/><text fill="#000000" font-family="sans-serif" font-size="13" font-weight="bold" lengthAdjust="spacing" textLength="31.7827" x="893" y="562.3389">Alvo/</text><text fill="#000000" font-family="sans-serif" font-size="13" lengthAdjust="spacing" textLength="143.0571" x="893" y="578.6904">Worker cria/atualiza jogo</text><text fill="#000000" font-family="sans-serif" font-size="13" lengthAdjust="spacing" textLength="138.7598" x="893" y="595.042">no cat&#225;logo e (opcional)</text><text fill="#000000" font-family="sans-serif" font-size="13" lengthAdjust="spacing" textLength="137.2998" x="893" y="611.3936">indexa no Elasticsearch</text><!--SRC=[RLJ9JkD04BttLvJ89OaI38Wb-81ad0Hn0091cijSAdRXzCJfzdItmpAQZvblcH-RyfQOCB9akQfVltgrk9nqAG4C8OZNKa5a9C8FdMZOyCUBJ16wc3eo2ftS8A06Kd6cfNBW3COoabfXsXF2hgJAqE0Qx19Z_IfL0Y-OMcgThF7jZgp5XERoWs1qr3fROBHAZCvL7EfK6-XC9yNJvgMVEQc80cFqw_DIHYl5P73IWl3RiQGCbPjX71SQJZu5qM-D__X828mSHweoxqoduV7HXMXHmC4Dhib2CBiz0BHGMcn09nnDpiDB4QF31Lg2WuVSCJTqIqYlH5Uk6-XCHjEpoQLWyJaZvuzpI0hKa3Qad1sM_lB6OnMk4voDpuF_AlccpOhCJanbGsTq75wCJbjwxhJY7fQO7Nfy3PtJC9YUSUfLqiEhRL8-p1xcp-2LsZpCf5USUByA-pR-xPKolwlkGiVlFjopTm1ZiZmmcUCP6428ZX9jtWSmCpBYqyF3mrvHOfuRHziuGcpBoD7h8lcGaR7IEWWDCRg0F1NjjexY7KUD5arfXotz8gOlk5OeHfOf-pmG9n144MK5TUlIJg3IREeD5xOc6jIjyMi7pF95AksI4TtTtFPskgws5x8A2UjgxeMeczmehphemnD593TK_nvxPQj0TJfrpnk2yRKFUMR9kDA6xdxDnzUYwVxmSzGlsJDqFqQJnvXISbjv-nSRWMNbZ4oM3lJBbXEWtm_IZVRwVVwkkOjDuw7BCPKVrShXCwKXGlVtJrfi8Cv5Pyr-0P0gfZSi89CKBVyPbj14Iy7x28guuXy0]--></g></svg>