<svg xmlns="http://www.w3.org/2000/svg" xmlns:xlink="http://www.w3.org/1999/xlink" contentStyleType="text/css" height="732px" preserveAspectRatio="none" style="width:1058px;height:732px;background:#FEFEFE;" version="1.1" viewBox="0 0 1058 732" width="1058px" zoomAndPan="magnify"><title>WIP - Admin cria jogo via fila (alternativa ao endpoint tradicional)</title><defs/><g><rect fill="#FEFEFE" height="732" style="stroke:none;stroke-width:1;" width="1058" x="0" y="0"/><text fill="#000000" font-family="sans-serif" font-size="14" font-weight="bold" lengthAdjust="spacing" textLength="433.2822" x="310.8875" y="29.5332">WIP - Admin cria jogo via fila (alternativa ao endpoint tradicional)</text><rect fill="#FFFFFF" height="107.4063" style="stroke:#181818;stroke-width:1;" width="10" x="244.8628" y="235.3281"/><rect fill="#FFFFFF" height="14" style="stroke:#181818;stroke-width:1;" width="10" x="411.1626" y="298.3828"/><rect fill="#FFFFFF" height="91.0547" style="stroke:#181818;stroke-width:1;" width="10" x="744.9409" y="456.1406"/><rect fill="#FFFFFF" height="14" style="stroke:#181818;stroke-width:1;" width="10" x="877.9131" y="502.8438"/><line style="stroke:#181818;stroke-width:0.5;stroke-dasharray:5.0,5.0;" x1="27" x2="27" y1="121.2188" y2="650.6016"/><line style="stroke:#181818;stroke-width:0.5;stroke-dasharray:5.0,5.0;" x1="249.0732" x2="249.0732" y1="121.2188" y2="650.6016"/><line style="stroke:#181818;stroke-width:0.5;stroke-dasharray:5.0,5.0;" x1="415.4248" x2="415.4248" y1="121.2188" y2="650.6016"/><line style="stroke:#181818;stroke-width:0.5;stroke-dasharray:5.0,5.0;" x1="572.9004" x2="572.9004" y1="121.2188" y2="650.6016"/><line style="stroke:#181818;stroke-width:0.5;stroke-dasharray:5.0,5.0;" x1="749.8789" x2="749.8789" y1="121.2188" y2="650.6016"/><line style="stroke:#181818;stroke-width:0.5;stroke-dasharray:5.0,5.0;" x1="882.0029" x2="882.0029" y1="121.2188" y2="650.6016"/><text fill="#000000" font-family="sans-serif" font-size="14" lengthAdjust="spacing" textLength="39.6826" x="5" y="118.1426">Admin</text><ellipse cx="27.8413" cy="52.1094" fill="#FFC107" rx="8" ry="8" style="stroke:#181818;stroke-width:0.5;"/><path d="M27.8413,60.1094 L27.8413,87.1094 M14.8413,68.1094 L40.8413,68.1094 M27.8413,87.1094 L14.8413,102.1094 M27.8413,87.1094 L40.8413,102.1094 " fill="none" style="stroke:#181818;stroke-width:0.5;"/><text fill="#000000" font-family="sans-serif" font-size="14" lengthAdjust="spacing" textLength="39.6826" x="5" y="664.1348">Admin</text><ellipse cx="27.8413" cy="675.7109" fill="#FFC107" rx="8" ry="8" style="stroke:#181818;stroke-width:0.5;"/><path d="M27.8413,683.7109 L27.8413,710.7109 M14.8413,691.7109 L40.8413,691.7109 M27.8413,710.7109 L14.8413,725.7109 M27.8413,710.7109 L40.8413,725.7109 " fill="none" style="stroke:#181818;stroke-width:0.5;"/><rect fill="#C8E6C9" height="31.6094" rx="2.5" ry="2.5" style="stroke:#181818;stroke-width:0.5;" width="85.5791" x="207.0732" y="88.6094"/><text fill="#000000" font-family="sans-serif" font-size="14" lengthAdjust="spacing" textLength="71.5791" x="214.0732" y="110.1426">Games API</text><rect fill="#C8E6C9" height="31.6094" rx="2.5" ry="2.5" style="stroke:#181818;stroke-width:0.5;" width="85.5791" x="207.0732" y="649.6016"/><text fill="#000000" font-family="sans-serif" font-size="14" lengthAdjust="spacing" textLength="71.5791" x="214.0732" y="671.1348">Games API</text><text fill="#000000" font-family="sans-serif" font-size="14" lengthAdjust="spacing" textLength="103.4756" x="361.4248" y="118.1426">Outbox (Games)</text><path d="M398.1626,67.6094 C398.1626,57.6094 416.1626,57.6094 416.1626,57.6094 C416.1626,57.6094 434.1626,57.6094 434.1626,67.6094 L434.1626,93.6094 C434.1626,103.6094 416.1626,103.6094 416.1626,103.6094 C416.1626,103.6094 398.1626,103.6094 398.1626,93.6094 L398.1626,67.6094 " fill="#E8F5E9" style="stroke:#181818;stroke-width:1.5;"/><path d="M398.1626,67.6094 C398.1626,77.6094 416.1626,77.6094 416.1626,77.6094 C416.1626,77.6094 434.1626,77.6094 434.1626,67.6094 " fill="none" style="stroke:#181818;stroke-width:1.5;"/><text fill="#000000" font-family="sans-serif" font-size="14" lengthAdjust="spacing" textLength="103.4756" x="361.4248" y="664.1348">Outbox (Games)</text><path d="M398.1626,677.2109 C398.1626,667.2109 416.1626,667.2109 416.1626,667.2109 C416.1626,667.2109 434.1626,667.2109 434.1626,677.2109 L434.1626,703.2109 C434.1626,713.2109 416.1626,713.2109 416.1626,713.2109 C416.1626,713.2109 398.1626,713.2109 398.1626,703.2109 L398.1626,677.2109 " fill="#E8F5E9" style="stroke:#181818;stroke-width:1.5;"/><path d="M398.1626,677.2109 C398.1626,687.2109 416.1626,687.2109 416.1626,687.2109 C416.1626,687.2109 434.1626,687.2109 434.1626,677.2109 " fill="none" style="stroke:#181818;stroke-width:1.5;"/><path d="M485.9004,93.6094 L660.8789,93.6094 C665.8789,93.6094 665.8789,107.4141 665.8789,107.4141 C665.8789,107.4141 665.8789,121.2188 660.8789,121.2188 L485.9004,121.2188 C480.9004,121.2188 480.9004,107.4141 480.9004,107.4141 C480.9004,107.4141 480.9004,93.6094 485.9004,93.6094 " fill="#A5D6A7" style="stroke:#181818;stroke-width:0.5;"/><path d="M660.8789,93.6094 C655.8789,93.6094 655.8789,107.4141 655.8789,107.4141 C655.8789,121.2188 660.8789,121.2188 660.8789,121.2188 " fill="none" style="stroke:#181818;stroke-width:0.5;"/><text fill="#000000" font-family="sans-serif" font-size="14" lengthAdjust="spacing" textLength="164.9785" x="485.9004" y="113.1426">SQS games-events-queue</text><path d="M485.9004,649.6016 L660.8789,649.6016 C665.8789,649.6016 665.8789,663.4063 665.8789,663.4063 C665.8789,663.4063 665.8789,677.2109 660.8789,677.2109 L485.9004,677.2109 C480.9004,677.2109 480.9004,663.4063 480.9004,663.4063 C480.9004,663.4063 480.9004,649.6016 485.9004,649.6016 " fill="#A5D6A7" style="stroke:#181818;stroke-width:0.5;"/><path d="M660.8789,649.6016 C655.8789,649.6016 655.8789,663.4063 655.8789,663.4063 C655.8789,677.2109 660.8789,677.2109 660.8789,677.2109 " fill="none" style="stroke:#181818;stroke-width:0.5;"/><text fill="#000000" font-family="sans-serif" font-size="14" lengthAdjust="spacing" textLength="164.9785" x="485.9004" y="669.1348">SQS games-events-queue</text><rect fill="#81C784" height="31.6094" rx="2.5" ry="2.5" style="stroke:#181818;stroke-width:0.5;" width="108.124" x="695.8789" y="88.6094"/><text fill="#000000" font-family="sans-serif" font-size="14" lengthAdjust="spacing" textLength="94.124" x="702.8789" y="110.1426">Games Worker</text><rect fill="#81C784" height="31.6094" rx="2.5" ry="2.5" style="stroke:#181818;stroke-width:0.5;" width="108.124" x="695.8789" y="649.6016"/><text fill="#000000" font-family="sans-serif" font-size="14" lengthAdjust="spacing" textLength="94.124" x="702.8789" y="671.1348">Games Worker</text><text fill="#000000" font-family="sans-serif" font-size="14" lengthAdjust="spacing" textLength="91.8203" x="834.0029" y="118.1426">Mongo Games</text><path d="M864.9131,67.6094 C864.9131,57.6094 882.9131,57.6094 882.9131,57.6094 C882.9131,57.6094 900.9131,57.6094 900.9131,67.6094 L900.9131,93.6094 C900.9131,103.6094 882.9131,103.6094 882.9131,103.6094 C882.9131,103.6094 864.9131,103.6094 864.9131,93.6094 L864.9131,67.6094 " fill="#4CAF50" style="stroke:#181818;stroke-width:1.5;"/><path d="M864.9131,67.6094 C864.9131,77.6094 882.9131,77.6094 882.9131,77.6094 C882.9131,77.6094 900.9131,77.6094 900.9131,67.6094 " fill="none" style="stroke:#181818;stroke-width:1.5;"/><text fill="#000000" font-family="sans-serif" font-size="14" lengthAdjust="spacing" textLength="91.8203" x="834.0029" y="664.1348">Mongo Games</text><path d="M864.9131,677.2109 C864.9131,667.2109 882.9131,667.2109 882.9131,667.2109 C882.9131,667.2109 900.9131,667.2109 900.9131,677.2109 L900.9131,703.2109 C900.9131,713.2109 882.9131,713.2109 882.9131,713.2109 C882.9131,713.2109 864.9131,713.2109 864.9131,703.2109 L864.9131,677.2109 " fill="#4CAF50" style="stroke:#181818;stroke-width:1.5;"/><path d="M864.9131,677.2109 C864.9131,687.2109 882.9131,687.2109 882.9131,687.2109 C882.9131,687.2109 900.9131,687.2109 900.9131,677.2109 " fill="none" style="stroke:#181818;stroke-width:1.5;"/><rect fill="#FFFFFF" height="107.4063" style="stroke:#181818;stroke-width:1;" width="10" x="244.8628" y="235.3281"/><rect fill="#FFFFFF" height="14" style="stroke:#181818;stroke-width:1;" width="10" x="411.1626" y="298.3828"/><rect fill="#FFFFFF" height="91.0547" style="stroke:#181818;stroke-width:1;" width="10" x="744.9409" y="456.1406"/><rect fill="#FFFFFF" height="14" style="stroke:#181818;stroke-width:1;" width="10" x="877.9131" y="502.8438"/><polygon fill="#181818" points="232.8628,231.3281,242.8628,235.3281,232.8628,239.3281,236.8628,235.3281" style="stroke:#181818;stroke-width:1;"/><line style="stroke:#181818;stroke-width:2;" x1="27.8413" x2="238.8628" y1="235.3281" y2="235.3281"/><text fill="#000000" font-family="sans-serif" font-size="13" lengthAdjust="spacing" textLength="35.3945" x="34.8413" y="148.7139">POST</text><text fill="#000000" font-family="sans-serif" font-size="13" lengthAdjust="spacing" textLength="198.0215" x="34.8413" y="165.0654">/games/api/Game/{gameId}/queue</text><text fill="#000000" font-family="sans-serif" font-size="13" lengthAdjust="spacing" textLength="36.1309" x="34.8413" y="181.417">(body:</text><text fill="#000000" font-family="sans-serif" font-size="13" lengthAdjust="spacing" textLength="3.6118" x="70.9722" y="181.417">&#160;</text><text fill="#000000" font-family="sans-serif" font-size="13" lengthAdjust="spacing" textLength="38.2891" x="74.584" y="181.417">Name,</text><text fill="#000000" font-family="sans-serif" font-size="13" lengthAdjust="spacing" textLength="68.6372" x="34.8413" y="197.7686">Description,</text><text fill="#000000" font-family="sans-serif" font-size="13" lengthAdjust="spacing" textLength="56.3608" x="34.8413" y="214.1201">Category,</text><text fill="#000000" font-family="sans-serif" font-size="13" lengthAdjust="spacing" textLength="33.23" x="34.8413" y="230.4717">Price,</text><text fill="#000000" font-family="sans-serif" font-size="13" lengthAdjust="spacing" textLength="3.6118" x="68.0713" y="230.4717">&#160;</text><text fill="#000000" font-family="sans-serif" font-size="13" lengthAdjust="spacing" textLength="15.1646" x="71.6831" y="230.4717">...)</text><polygon fill="#181818" points="399.1626,294.3828,409.1626,298.3828,399.1626,302.3828,403.1626,298.3828" style="stroke:#181818;stroke-width:1;"/><line style="stroke:#181818;stroke-width:2;" x1="254.8628" x2="405.1626" y1="298.3828" y2="298.3828"/><text fill="#000000" font-family="sans-serif" font-size="13" lengthAdjust="spacing" textLength="38.2891" x="261.8628" y="260.8232">persist</text><text fill="#000000" font-family="sans-serif" font-size="13" lengthAdjust="spacing" textLength="137.2998" x="261.8628" y="277.1748">CreateGameRequested</text><text fill="#000000" font-family="sans-serif" font-size="13" lengthAdjust="spacing" textLength="33.2109" x="261.8628" y="293.5264">(WIP)</text><polygon fill="#181818" points="265.8628,308.3828,255.8628,312.3828,265.8628,316.3828,261.8628,312.3828" style="stroke:#181818;stroke-width:1;"/><line style="stroke:#181818;stroke-width:2;stroke-dasharray:2.0,2.0;" x1="259.8628" x2="415.1626" y1="312.3828" y2="312.3828"/><polygon fill="#181818" points="38.8413,338.7344,28.8413,342.7344,38.8413,346.7344,34.8413,342.7344" style="stroke:#181818;stroke-width:1;"/><line style="stroke:#181818;stroke-width:2;stroke-dasharray:2.0,2.0;" x1="32.8413" x2="248.8628" y1="342.7344" y2="342.7344"/><text fill="#000000" font-family="sans-serif" font-size="13" lengthAdjust="spacing" textLength="21.6899" x="44.8413" y="337.8779">202</text><text fill="#000000" font-family="sans-serif" font-size="13" lengthAdjust="spacing" textLength="3.6118" x="66.5313" y="337.8779">&#160;</text><text fill="#000000" font-family="sans-serif" font-size="13" lengthAdjust="spacing" textLength="54.2026" x="70.1431" y="337.8779">Accepted</text><path d="M345,355.7344 L345,381.7344 L644,381.7344 L644,365.7344 L634,355.7344 L345,355.7344 " fill="#FEFFDD" style="stroke:#181818;stroke-width:0.5;"/><path d="M634,355.7344 L634,365.7344 L644,365.7344 L634,355.7344 " fill="#FEFFDD" style="stroke:#181818;stroke-width:0.5;"/><text fill="#000000" font-family="sans-serif" font-size="13" lengthAdjust="spacing" textLength="179.9307" x="400.2617" y="374.2295">Outbox Publisher (background)</text><polygon fill="#181818" points="561.3896,421.7891,571.3896,425.7891,561.3896,429.7891,565.3896,425.7891" style="stroke:#181818;stroke-width:1;"/><line style="stroke:#181818;stroke-width:2;" x1="416.1626" x2="567.3896" y1="425.7891" y2="425.7891"/><text fill="#000000" font-family="sans-serif" font-size="13" lengthAdjust="spacing" textLength="41.1963" x="423.1626" y="404.5811">publish</text><text fill="#000000" font-family="sans-serif" font-size="13" lengthAdjust="spacing" textLength="52.749" x="423.1626" y="420.9326">message</text><polygon fill="#181818" points="732.9409,452.1406,742.9409,456.1406,732.9409,460.1406,736.9409,456.1406" style="stroke:#181818;stroke-width:1;"/><line style="stroke:#181818;stroke-width:2;" x1="573.3896" x2="738.9409" y1="456.1406" y2="456.1406"/><text fill="#000000" font-family="sans-serif" font-size="13" lengthAdjust="spacing" textLength="99.7153" x="580.3896" y="451.2842">ReceiveMessage</text><polygon fill="#181818" points="865.9131,498.8438,875.9131,502.8438,865.9131,506.8438,869.9131,502.8438" style="stroke:#181818;stroke-width:1;"/><line style="stroke:#181818;stroke-width:2;" x1="754.9409" x2="871.9131" y1="502.8438" y2="502.8438"/><text fill="#000000" font-family="sans-serif" font-size="13" lengthAdjust="spacing" textLength="36.1309" x="761.9409" y="481.6357">upsert</text><text fill="#000000" font-family="sans-serif" font-size="13" lengthAdjust="spacing" textLength="3.6118" x="798.0718" y="481.6357">&#160;</text><text fill="#000000" font-family="sans-serif" font-size="13" lengthAdjust="spacing" textLength="35.4009" x="801.6836" y="481.6357">Game</text><text fill="#000000" font-family="sans-serif" font-size="13" lengthAdjust="spacing" textLength="33.2109" x="761.9409" y="497.9873">(WIP)</text><polygon fill="#181818" points="765.9409,512.8438,755.9409,516.8438,765.9409,520.8438,761.9409,516.8438" style="stroke:#181818;stroke-width:1;"/><line style="stroke:#181818;stroke-width:2;stroke-dasharray:2.0,2.0;" x1="759.9409" x2="881.9131" y1="516.8438" y2="516.8438"/><polygon fill="#181818" points="584.3896,543.1953,574.3896,547.1953,584.3896,551.1953,580.3896,547.1953" style="stroke:#181818;stroke-width:1;"/><line style="stroke:#181818;stroke-width:2;" x1="578.3896" x2="748.9409" y1="547.1953" y2="547.1953"/><text fill="#000000" font-family="sans-serif" font-size="13" lengthAdjust="spacing" textLength="90.3271" x="590.3896" y="542.3389">DeleteMessage</text><path d="M887,560.1953 L887,635.1953 L1051,635.1953 L1051,570.1953 L1041,560.1953 L887,560.1953 " fill="#FEFFDD" style="stroke:#181818;stroke-width:0.5;"/><path d="M1041,560.1953 L1041,570.1953 L1051,570.1953 L1041,560.1953 " fill="#FEFFDD" style="stroke:#181818;stroke-width:0.5;"/><text fill="#000000" font-family="sans-serif" font-size="13" font-weight="bold" lengthAdjust="spacing" textLength="56.3354" x="893" y="578.6904">Alvo/WIP</text><text fill="#000000" font-family="sans-serif" font-size="13" lengthAdjust="spacing" textLength="143.0571" x="893" y="595.042">Worker cria/atualiza jogo</text><text fill="#000000" font-family="sans-serif" font-size="13" lengthAdjust="spacing" textLength="138.7598" x="893" y="611.3936">no cat&#225;logo e (opcional)</text><text fill="#000000" font-family="sans-serif" font-size="13" lengthAdjust="spacing" textLength="137.2998" x="893" y="627.7451">indexa no Elasticsearch</text><!--SRC=[RLJRJkD037sVhx38Irkr112NaWUaaBQ81vP2aNZP5pSnwMpJcUpCj5nM-p7xBVjZwzpQK5QHejW-jeyliPCk8tY-dS80mcGb5SH68lpGgOODVxp83A63cIEZqCaD0ceWbUHQAWVEO29ZgHLcNI7iKgeS3Qx0BZ3HhrAby8APfPPbXMztP2scD9CV1CEZbcsEyJ8rUgsII6VQW3SP5qyxBlrSauefD4Q_FYral5GS34vQ47uxffIZSbDCaeB3oQSa-gtH7ny9WR7ZJ5NbtcGI7HzTY5O8EBZ15La8fxS7W1PAYGNmek7uFBeK2JgSeoKuk5yxZWsT4j8jqPNg1hpnS78slXHCVit8sSCCqW8re0qfPmUbllHugD9vuTdeFFmlasTjbcHsP2ePlE5nT34yRV6vqufdM69swD4rUATHE3dZqgkY1rVReWAOti-Um2-v-PXBlx3ulmhvDldjbpI_gyvS9-y1V6Dj7qPaUM5onplGXmWTfTgyzs5gPCpMmyF3Rj5YtXj7spn2RDl8sUic1P2JiT8wY0mnke0y5kEsZXBey8Qs8jK-ecdme5M5IEWBhfMGaMNX0Q_52OHnJ3adQ3ljQ2hDejvmU-j0_Nf0GQs0wNgUIRjWH6UtlTqThwkjGruXOLLjln3rg1lcrHm3UAIOv8RgdsIlUHMeBgUUV1DWT1t0EhTaN2dljwp6Y6OD1fyJVsa0G_VJDAMCA2EtPRZls70icsTakd2WNxOn0NgzCDjedzdrUYpMuOkhuwDROoO_glF3DgKXHlVtJrPS8wv8vysj0P0geJSi8ECCBVybbj342y6t2OhKuXy0]--></g></svg>