<svg xmlns="http://www.w3.org/2000/svg" xmlns:xlink="http://www.w3.org/1999/xlink" contentStyleType="text/css" height="868px" preserveAspectRatio="none" style="width:1008px;height:868px;background:#FEFEFE;" version="1.1" viewBox="0 0 1008 868" width="1008px" zoomAndPan="magnify"><title>Comunica&#231;&#227;o Ass&#237;ncrona - Vis&#227;o Geral</title><defs/><g><rect fill="#FEFEFE" height="868" style="stroke:none;stroke-width:1;" width="1008" x="0" y="0"/><text fill="#000000" font-family="sans-serif" font-size="14" font-weight="bold" lengthAdjust="spacing" textLength="261.4199" x="366.565" y="24.5332">Comunica&#231;&#227;o Ass&#237;ncrona - Vis&#227;o Geral</text><!--cluster Games--><g id="cluster_Games"><rect fill="#E8F5E9" height="264" rx="2.5" ry="2.5" style="stroke:#181818;stroke-width:1;" width="496" x="30.55" y="169.1094"/><text fill="#000000" font-family="sans-serif" font-size="14" font-weight="bold" lengthAdjust="spacing" textLength="46.6963" x="255.2019" y="185.6426">Games</text></g><!--cluster Payments--><g id="cluster_Payments"><rect fill="#E3F2FD" height="273" rx="2.5" ry="2.5" style="stroke:#181818;stroke-width:1;" width="484" x="518.55" y="589.1094"/><text fill="#000000" font-family="sans-serif" font-size="14" font-weight="bold" lengthAdjust="spacing" textLength="66.1445" x="727.4777" y="605.6426">Payments</text></g><!--cluster Users--><g id="cluster_Users"><rect fill="#FFF3E0" height="264" rx="2.5" ry="2.5" style="stroke:#181818;stroke-width:1;" width="286" x="550.55" y="169.1094"/><text fill="#000000" font-family="sans-serif" font-size="14" font-weight="bold" lengthAdjust="spacing" textLength="38.917" x="674.0915" y="185.6426">Users</text></g><!--entity GamesAPI--><g id="elem_GamesAPI"><rect fill="#F1F1F1" height="37.6094" rx="2.5" ry="2.5" style="stroke:#181818;stroke-width:0.5;" width="91.5791" x="281.55" y="205.1094"/><text fill="#000000" font-family="sans-serif" font-size="14" lengthAdjust="spacing" textLength="45.124" x="291.55" y="229.6426">Games</text><text fill="#000000" font-family="sans-serif" font-size="14" lengthAdjust="spacing" textLength="3.8896" x="336.674" y="229.6426">&#160;</text><text fill="#000000" font-family="sans-serif" font-size="14" lengthAdjust="spacing" textLength="22.5654" x="340.5637" y="229.6426">API</text></g><!--entity GamesDB--><g id="elem_GamesDB"><path d="M112.55,380.1094 C112.55,370.1094 168.4602,370.1094 168.4602,370.1094 C168.4602,370.1094 224.3703,370.1094 224.3703,380.1094 L224.3703,406.7188 C224.3703,416.7188 168.4602,416.7188 168.4602,416.7188 C168.4602,416.7188 112.55,416.7188 112.55,406.7188 L112.55,380.1094 " fill="#F1F1F1" style="stroke:#181818;stroke-width:0.5;"/><path d="M112.55,380.1094 C112.55,390.1094 168.4602,390.1094 168.4602,390.1094 C168.4602,390.1094 224.3703,390.1094 224.3703,380.1094 " fill="none" style="stroke:#181818;stroke-width:0.5;"/><text fill="#000000" font-family="sans-serif" font-size="14" lengthAdjust="spacing" textLength="42.8066" x="122.55" y="408.6426">Mongo</text><text fill="#000000" font-family="sans-serif" font-size="14" lengthAdjust="spacing" textLength="3.8896" x="165.3566" y="408.6426">&#160;</text><text fill="#000000" font-family="sans-serif" font-size="14" lengthAdjust="spacing" textLength="45.124" x="169.2463" y="408.6426">Games</text></g><!--entity OutboxG--><g id="elem_OutboxG"><path d="M300.05,380.1094 C300.05,370.1094 361.7878,370.1094 361.7878,370.1094 C361.7878,370.1094 423.5256,370.1094 423.5256,380.1094 L423.5256,406.7188 C423.5256,416.7188 361.7878,416.7188 361.7878,416.7188 C361.7878,416.7188 300.05,416.7188 300.05,406.7188 L300.05,380.1094 " fill="#F1F1F1" style="stroke:#181818;stroke-width:0.5;"/><path d="M300.05,380.1094 C300.05,390.1094 361.7878,390.1094 361.7878,390.1094 C361.7878,390.1094 423.5256,390.1094 423.5256,380.1094 " fill="none" style="stroke:#181818;stroke-width:0.5;"/><text fill="#000000" font-family="sans-serif" font-size="14" lengthAdjust="spacing" textLength="45.1377" x="310.05" y="408.6426">Outbox</text><text fill="#000000" font-family="sans-serif" font-size="14" lengthAdjust="spacing" textLength="3.8896" x="355.1877" y="408.6426">&#160;</text><text fill="#000000" font-family="sans-serif" font-size="14" lengthAdjust="spacing" textLength="54.4482" x="359.0773" y="408.6426">(Games)</text></g><!--entity GamesWorker--><g id="elem_GamesWorker"><rect fill="#F1F1F1" height="37.6094" rx="2.5" ry="2.5" style="stroke:#181818;stroke-width:0.5;" width="114.124" x="46.55" y="205.1094"/><text fill="#000000" font-family="sans-serif" font-size="14" lengthAdjust="spacing" textLength="45.124" x="56.55" y="229.6426">Games</text><text fill="#000000" font-family="sans-serif" font-size="14" lengthAdjust="spacing" textLength="3.8896" x="101.674" y="229.6426">&#160;</text><text fill="#000000" font-family="sans-serif" font-size="14" lengthAdjust="spacing" textLength="45.1104" x="105.5637" y="229.6426">Worker</text></g><!--entity PaymentsAPI--><g id="elem_PaymentsAPI"><rect fill="#F1F1F1" height="37.6094" rx="2.5" ry="2.5" style="stroke:#181818;stroke-width:0.5;" width="108.7031" x="877.05" y="629.6094"/><text fill="#000000" font-family="sans-serif" font-size="14" lengthAdjust="spacing" textLength="62.248" x="887.05" y="654.1426">Payments</text><text fill="#000000" font-family="sans-serif" font-size="14" lengthAdjust="spacing" textLength="3.8896" x="949.298" y="654.1426">&#160;</text><text fill="#000000" font-family="sans-serif" font-size="14" lengthAdjust="spacing" textLength="22.5654" x="953.1877" y="654.1426">API</text></g><!--entity PaymentsDB--><g id="elem_PaymentsDB"><path d="M640.05,809.1094 C640.05,799.1094 704.5222,799.1094 704.5222,799.1094 C704.5222,799.1094 768.9943,799.1094 768.9943,809.1094 L768.9943,835.7188 C768.9943,845.7188 704.5222,845.7188 704.5222,845.7188 C704.5222,845.7188 640.05,845.7188 640.05,835.7188 L640.05,809.1094 " fill="#F1F1F1" style="stroke:#181818;stroke-width:0.5;"/><path d="M640.05,809.1094 C640.05,819.1094 704.5222,819.1094 704.5222,819.1094 C704.5222,819.1094 768.9943,819.1094 768.9943,809.1094 " fill="none" style="stroke:#181818;stroke-width:0.5;"/><text fill="#000000" font-family="sans-serif" font-size="14" lengthAdjust="spacing" textLength="42.8066" x="650.05" y="837.6426">Mongo</text><text fill="#000000" font-family="sans-serif" font-size="14" lengthAdjust="spacing" textLength="3.8896" x="692.8566" y="837.6426">&#160;</text><text fill="#000000" font-family="sans-serif" font-size="14" lengthAdjust="spacing" textLength="62.248" x="696.7463" y="837.6426">Payments</text></g><!--entity OutboxP--><g id="elem_OutboxP"><path d="M701.05,635.1094 C701.05,625.1094 771.3498,625.1094 771.3498,625.1094 C771.3498,625.1094 841.6496,625.1094 841.6496,635.1094 L841.6496,661.7188 C841.6496,671.7188 771.3498,671.7188 771.3498,671.7188 C771.3498,671.7188 701.05,671.7188 701.05,661.7188 L701.05,635.1094 " fill="#F1F1F1" style="stroke:#181818;stroke-width:0.5;"/><path d="M701.05,635.1094 C701.05,645.1094 771.3498,645.1094 771.3498,645.1094 C771.3498,645.1094 841.6496,645.1094 841.6496,635.1094 " fill="none" style="stroke:#181818;stroke-width:0.5;"/><text fill="#000000" font-family="sans-serif" font-size="14" lengthAdjust="spacing" textLength="45.1377" x="711.05" y="663.6426">Outbox</text><text fill="#000000" font-family="sans-serif" font-size="14" lengthAdjust="spacing" textLength="3.8896" x="756.1877" y="663.6426">&#160;</text><text fill="#000000" font-family="sans-serif" font-size="14" lengthAdjust="spacing" textLength="71.5723" x="760.0773" y="663.6426">(Payments)</text></g><!--entity PaymentsWorker--><g id="elem_PaymentsWorker"><rect fill="#F1F1F1" height="37.6094" rx="2.5" ry="2.5" style="stroke:#181818;stroke-width:0.5;" width="131.248" x="535.05" y="629.6094"/><text fill="#000000" font-family="sans-serif" font-size="14" lengthAdjust="spacing" textLength="62.248" x="545.05" y="654.1426">Payments</text><text fill="#000000" font-family="sans-serif" font-size="14" lengthAdjust="spacing" textLength="3.8896" x="607.298" y="654.1426">&#160;</text><text fill="#000000" font-family="sans-serif" font-size="14" lengthAdjust="spacing" textLength="45.1104" x="611.1877" y="654.1426">Worker</text></g><!--entity UsersAPI--><g id="elem_UsersAPI"><rect fill="#F1F1F1" height="37.6094" rx="2.5" ry="2.5" style="stroke:#181818;stroke-width:0.5;" width="83.0137" x="587.05" y="205.1094"/><text fill="#000000" font-family="sans-serif" font-size="14" lengthAdjust="spacing" textLength="36.5586" x="597.05" y="229.6426">Users</text><text fill="#000000" font-family="sans-serif" font-size="14" lengthAdjust="spacing" textLength="3.8896" x="633.6086" y="229.6426">&#160;</text><text fill="#000000" font-family="sans-serif" font-size="14" lengthAdjust="spacing" textLength="22.5654" x="637.4982" y="229.6426">API</text></g><!--entity UsersDB--><g id="elem_UsersDB"><path d="M717.05,380.1094 C717.05,370.1094 768.6774,370.1094 768.6774,370.1094 C768.6774,370.1094 820.3049,370.1094 820.3049,380.1094 L820.3049,406.7188 C820.3049,416.7188 768.6774,416.7188 768.6774,416.7188 C768.6774,416.7188 717.05,416.7188 717.05,406.7188 L717.05,380.1094 " fill="#F1F1F1" style="stroke:#181818;stroke-width:0.5;"/><path d="M717.05,380.1094 C717.05,390.1094 768.6774,390.1094 768.6774,390.1094 C768.6774,390.1094 820.3049,390.1094 820.3049,380.1094 " fill="none" style="stroke:#181818;stroke-width:0.5;"/><text fill="#000000" font-family="sans-serif" font-size="14" lengthAdjust="spacing" textLength="42.8066" x="727.05" y="408.6426">Mongo</text><text fill="#000000" font-family="sans-serif" font-size="14" lengthAdjust="spacing" textLength="3.8896" x="769.8566" y="408.6426">&#160;</text><text fill="#000000" font-family="sans-serif" font-size="14" lengthAdjust="spacing" textLength="36.5586" x="773.7463" y="408.6426">Users</text></g><!--entity OutboxU--><g id="elem_OutboxU"><path d="M567.05,380.1094 C567.05,370.1094 624.5051,370.1094 624.5051,370.1094 C624.5051,370.1094 681.9602,370.1094 681.9602,380.1094 L681.9602,406.7188 C681.9602,416.7188 624.5051,416.7188 624.5051,416.7188 C624.5051,416.7188 567.05,416.7188 567.05,406.7188 L567.05,380.1094 " fill="#F1F1F1" style="stroke:#181818;stroke-width:0.5;"/><path d="M567.05,380.1094 C567.05,390.1094 624.5051,390.1094 624.5051,390.1094 C624.5051,390.1094 681.9602,390.1094 681.9602,380.1094 " fill="none" style="stroke:#181818;stroke-width:0.5;"/><text fill="#000000" font-family="sans-serif" font-size="14" lengthAdjust="spacing" textLength="45.1377" x="577.05" y="408.6426">Outbox</text><text fill="#000000" font-family="sans-serif" font-size="14" lengthAdjust="spacing" textLength="3.8896" x="622.1877" y="408.6426">&#160;</text><text fill="#000000" font-family="sans-serif" font-size="14" lengthAdjust="spacing" textLength="45.8828" x="626.0773" y="408.6426">(Users)</text></g><!--entity UsersWorker--><g id="elem_UsersWorker"><rect fill="#F1F1F1" height="37.6094" rx="2.5" ry="2.5" style="stroke:#181818;stroke-width:0.5;" width="105.5586" x="711.55" y="205.1094"/><text fill="#000000" font-family="sans-serif" font-size="14" lengthAdjust="spacing" textLength="36.5586" x="721.55" y="229.6426">Users</text><text fill="#000000" font-family="sans-serif" font-size="14" lengthAdjust="spacing" textLength="3.8896" x="758.1086" y="229.6426">&#160;</text><text fill="#000000" font-family="sans-serif" font-size="14" lengthAdjust="spacing" textLength="45.1104" x="761.9982" y="229.6426">Worker</text></g><!--entity Client--><g id="elem_Client"><ellipse cx="628.7326" cy="52.6094" fill="#F1F1F1" rx="8" ry="8" style="stroke:#181818;stroke-width:0.5;"/><path d="M628.7326,60.6094 L628.7326,87.6094 M615.7326,68.6094 L641.7326,68.6094 M628.7326,87.6094 L615.7326,102.6094 M628.7326,87.6094 L641.7326,102.6094 " fill="none" style="stroke:#181818;stroke-width:0.5;"/><text fill="#000000" font-family="sans-serif" font-size="14" lengthAdjust="spacing" textLength="79.3652" x="589.05" y="118.6426">Client/Admin</text></g><!--entity QUsers--><g id="elem_QUsers"><path d="M695.05,497.1094 L862.2424,497.1094 C867.2424,497.1094 867.2424,510.9141 867.2424,510.9141 C867.2424,510.9141 867.2424,524.7188 862.2424,524.7188 L695.05,524.7188 C690.05,524.7188 690.05,510.9141 690.05,510.9141 C690.05,510.9141 690.05,497.1094 695.05,497.1094 " fill="#FFE0B2" style="stroke:#181818;stroke-width:0.5;"/><path d="M862.2424,497.1094 C857.2424,497.1094 857.2424,510.9141 857.2424,510.9141 C857.2424,524.7188 862.2424,524.7188 862.2424,524.7188 " fill="none" style="stroke:#181818;stroke-width:0.5;"/><text fill="#000000" font-family="sans-serif" font-size="14" lengthAdjust="spacing" textLength="29.5654" x="695.05" y="516.6426">SQS</text><text fill="#000000" font-family="sans-serif" font-size="14" lengthAdjust="spacing" textLength="3.8896" x="724.6154" y="516.6426">&#160;</text><text fill="#000000" font-family="sans-serif" font-size="14" lengthAdjust="spacing" textLength="123.7373" x="728.5051" y="516.6426">users-events-queue</text></g><!--entity QGames--><g id="elem_QGames"><path d="M50.05,497.1094 L225.0285,497.1094 C230.0285,497.1094 230.0285,510.9141 230.0285,510.9141 C230.0285,510.9141 230.0285,524.7188 225.0285,524.7188 L50.05,524.7188 C45.05,524.7188 45.05,510.9141 45.05,510.9141 C45.05,510.9141 45.05,497.1094 50.05,497.1094 " fill="#C8E6C9" style="stroke:#181818;stroke-width:0.5;"/><path d="M225.0285,497.1094 C220.0285,497.1094 220.0285,510.9141 220.0285,510.9141 C220.0285,524.7188 225.0285,524.7188 225.0285,524.7188 " fill="none" style="stroke:#181818;stroke-width:0.5;"/><text fill="#000000" font-family="sans-serif" font-size="14" lengthAdjust="spacing" textLength="29.5654" x="50.05" y="516.6426">SQS</text><text fill="#000000" font-family="sans-serif" font-size="14" lengthAdjust="spacing" textLength="3.8896" x="79.6154" y="516.6426">&#160;</text><text fill="#000000" font-family="sans-serif" font-size="14" lengthAdjust="spacing" textLength="131.5234" x="83.5051" y="516.6426">games-events-queue</text></g><!--entity QPayments--><g id="elem_QPayments"><path d="M360.55,497.1094 L508.2941,497.1094 C513.2941,497.1094 513.2941,510.9141 513.2941,510.9141 C513.2941,510.9141 513.2941,524.7188 508.2941,524.7188 L360.55,524.7188 C355.55,524.7188 355.55,510.9141 355.55,510.9141 C355.55,510.9141 355.55,497.1094 360.55,497.1094 " fill="#BBDEFB" style="stroke:#181818;stroke-width:0.5;"/><path d="M508.2941,497.1094 C503.2941,497.1094 503.2941,510.9141 503.2941,510.9141 C503.2941,524.7188 508.2941,524.7188 508.2941,524.7188 " fill="none" style="stroke:#181818;stroke-width:0.5;"/><text fill="#000000" font-family="sans-serif" font-size="14" lengthAdjust="spacing" textLength="29.5654" x="360.55" y="516.6426">SQS</text><text fill="#000000" font-family="sans-serif" font-size="14" lengthAdjust="spacing" textLength="3.8896" x="390.1154" y="516.6426">&#160;</text><text fill="#000000" font-family="sans-serif" font-size="14" lengthAdjust="spacing" textLength="104.2891" x="394.0051" y="516.6426">payments-queue</text></g><!--link Client to GamesAPI--><g id="link_Client_GamesAPI"><path d="M588.89,102.4194 C531.1,129.1094 429.8371,175.8735 372.2671,202.4635 " fill="none" id="Client-to-GamesAPI" style="stroke:#181818;stroke-width:1;"/><polygon fill="#181818" points="366.82,204.9794,376.6678,204.837,371.3592,202.8828,373.3134,197.5742,366.82,204.9794" style="stroke:#181818;stroke-width:1;"/></g><!--link Client to UsersAPI--><g id="link_Client_UsersAPI"><path d="M628.55,122.4594 C628.55,149.2994 628.55,177.9494 628.55,198.8094 " fill="none" id="Client-to-UsersAPI" style="stroke:#181818;stroke-width:1;"/><polygon fill="#181818" points="628.55,204.8094,632.55,195.8094,628.55,199.8094,624.55,195.8094,628.55,204.8094" style="stroke:#181818;stroke-width:1;"/></g><!--link Client to PaymentsAPI--><g id="link_Client_PaymentsAPI"><path d="M668.39,90.3994 C763.81,106.5894 997.55,153.3694 997.55,223.1094 C997.55,223.1094 997.55,223.1094 997.55,512.1094 C997.55,557.8994 970.4173,599.6917 950.8973,624.5317 " fill="none" id="Client-to-PaymentsAPI" style="stroke:#181818;stroke-width:1;"/><polygon fill="#181818" points="947.19,629.2494,955.896,624.6444,950.2794,625.318,949.6058,619.7014,947.19,629.2494" style="stroke:#181818;stroke-width:1;"/></g><!--link UsersAPI to UsersDB--><g id="link_UsersAPI_UsersDB"><path d="M664.5,243.1094 C677.88,251.0194 692.49,261.2294 703.55,273.1094 C730.43,301.9694 747.6743,338.4575 757.9643,364.2175 " fill="none" id="UsersAPI-to-UsersDB" style="stroke:#181818;stroke-width:1;"/><polygon fill="#181818" points="760.19,369.7894,760.566,359.9477,758.3352,365.1461,753.1368,362.9153,760.19,369.7894" style="stroke:#181818;stroke-width:1;"/></g><!--link GamesAPI to GamesDB--><g id="link_GamesAPI_GamesDB"><path d="M281.52,228.3794 C249.69,233.1894 208.99,244.8794 185.55,273.1094 C162.92,300.3494 162.1904,337.7365 164.7004,364.0565 " fill="none" id="GamesAPI-to-GamesDB" style="stroke:#181818;stroke-width:1;"/><polygon fill="#181818" points="165.27,370.0294,168.3975,360.6903,164.7953,365.052,160.4337,361.4498,165.27,370.0294" style="stroke:#181818;stroke-width:1;"/></g><!--link PaymentsAPI to PaymentsDB--><g id="link_PaymentsAPI_PaymentsDB"><path d="M907.69,667.6894 C866.02,699.2594 784.9023,760.7259 739.3023,795.2759 " fill="none" id="PaymentsAPI-to-PaymentsDB" style="stroke:#181818;stroke-width:1;"/><polygon fill="#181818" points="734.52,798.8994,744.1091,796.6524,738.5053,795.8798,739.2779,790.276,734.52,798.8994" style="stroke:#181818;stroke-width:1;"/></g><!--link UsersAPI to OutboxU--><g id="link_UsersAPI_OutboxU"><path d="M626.67,243.3194 C625.84,252.2794 624.96,263.2494 624.55,273.1094 C623.15,306.6894 623.4029,339.6205 623.8729,363.6905 " fill="none" id="UsersAPI-to-OutboxU" style="stroke:#181818;stroke-width:1;"/><polygon fill="#181818" points="623.99,369.6894,627.8135,360.613,623.8924,364.6903,619.8151,360.7692,623.99,369.6894" style="stroke:#181818;stroke-width:1;"/><text fill="#000000" font-family="sans-serif" font-size="13" lengthAdjust="spacing" textLength="38.2891" x="625.55" y="312.1045">persist</text><text fill="#000000" font-family="sans-serif" font-size="13" lengthAdjust="spacing" textLength="3.6118" x="663.8391" y="312.1045">&#160;</text><text fill="#000000" font-family="sans-serif" font-size="13" lengthAdjust="spacing" textLength="31.8018" x="667.4509" y="312.1045">event</text></g><!--link OutboxU to QUsers--><g id="link_OutboxU_QUsers"><path d="M654.61,417.1494 C686.3,440.9194 730.3296,473.95 756.2296,493.37 " fill="none" id="OutboxU-to-QUsers" style="stroke:#181818;stroke-width:1;"/><polygon fill="#181818" points="761.03,496.9694,756.2289,488.37,757.0296,493.9699,751.4297,494.7706,761.03,496.9694" style="stroke:#181818;stroke-width:1;"/><text fill="#000000" font-family="sans-serif" font-size="13" lengthAdjust="spacing" textLength="41.1963" x="721.55" y="463.6045">publish</text></g><!--link QUsers to UsersWorker--><g id="link_QUsers_UsersWorker"><path d="M794.59,496.9394 C808.71,484.2794 828.41,463.7694 837.55,441.1094 C842.5,428.8494 853.29,290.4294 843.55,273.1094 C836.31,260.2394 829.2729,253.4077 816.5629,246.1077 " fill="none" id="QUsers-to-UsersWorker" style="stroke:#181818;stroke-width:1;"/><polygon fill="#181818" points="811.36,243.1194,817.1722,251.0704,815.6957,245.6096,821.1565,244.1332,811.36,243.1194" style="stroke:#181818;stroke-width:1;"/><text fill="#000000" font-family="sans-serif" font-size="13" lengthAdjust="spacing" textLength="52.749" x="846.55" y="399.1045">consume</text></g><!--link UsersWorker to UsersDB--><g id="link_UsersWorker_UsersDB"><path d="M764.99,243.3494 C765.72,274.1294 767.0671,330.2911 767.8671,363.8711 " fill="none" id="UsersWorker-to-UsersDB" style="stroke:#181818;stroke-width:1;"/><polygon fill="#181818" points="768.01,369.8694,771.7945,360.7767,767.8909,364.8708,763.7968,360.9672,768.01,369.8694" style="stroke:#181818;stroke-width:1;"/><text fill="#000000" font-family="sans-serif" font-size="13" lengthAdjust="spacing" textLength="31.0781" x="786.2473" y="304.1045">apply</text><text fill="#000000" font-family="sans-serif" font-size="13" lengthAdjust="spacing" textLength="66.4727" x="768.55" y="320.4561">side-effects</text></g><!--link GamesAPI to OutboxG--><g id="link_GamesAPI_OutboxG"><path d="M281.31,230.5094 C254.37,236.2894 222.46,248.2794 205.55,273.1094 C188.79,297.7194 188.17,315.9294 205.55,340.1094 C217.06,356.1194 255.6649,368.6912 294.1849,378.2012 " fill="none" id="GamesAPI-to-OutboxG" style="stroke:#181818;stroke-width:1;"/><polygon fill="#181818" points="300.01,379.6394,292.2311,373.5988,295.1558,378.4409,290.3136,381.3656,300.01,379.6394" style="stroke:#181818;stroke-width:1;"/><text fill="#000000" font-family="sans-serif" font-size="13" lengthAdjust="spacing" textLength="38.2891" x="268.6999" y="287.6045">persist</text><text fill="#000000" font-family="sans-serif" font-size="13" lengthAdjust="spacing" textLength="162.5889" x="206.55" y="303.9561">GameStarted/GameQueued</text><text fill="#000000" font-family="sans-serif" font-size="13" lengthAdjust="spacing" textLength="11.5591" x="282.0649" y="320.3076">or</text><text fill="#000000" font-family="sans-serif" font-size="13" lengthAdjust="spacing" textLength="137.2998" x="219.1945" y="336.6592">CreateGameRequested</text></g><!--link GamesAPI to OutboxG--><g id="link_GamesAPI_OutboxG"><path d="M351.72,243.5394 C360.32,251.5794 368.99,261.7594 373.55,273.1094 C386.3,304.8394 379.5857,339.2344 371.8257,363.9744 " fill="none" id="GamesAPI-to-OutboxG-1" style="stroke:#181818;stroke-width:1;"/><polygon fill="#181818" points="370.03,369.6994,376.5402,362.309,371.5264,364.9286,368.9069,359.9148,370.03,369.6994" style="stroke:#181818;stroke-width:1;"/><text fill="#000000" font-family="sans-serif" font-size="13" lengthAdjust="spacing" textLength="38.2891" x="410.8222" y="304.1045">persist</text><text fill="#000000" font-family="sans-serif" font-size="13" lengthAdjust="spacing" textLength="96.8335" x="381.55" y="320.4561">PaymentInitiated</text></g><!--link OutboxG to QGames--><g id="link_OutboxG_QGames"><path d="M317.83,417.1494 C271.74,440.9194 206.0327,474.7995 168.3727,494.2195 " fill="none" id="OutboxG-to-QGames" style="stroke:#181818;stroke-width:1;"/><polygon fill="#181818" points="163.04,496.9694,172.8724,496.3997,167.4839,494.6778,169.2058,489.2894,163.04,496.9694" style="stroke:#181818;stroke-width:1;"/><text fill="#000000" font-family="sans-serif" font-size="13" lengthAdjust="spacing" textLength="41.1963" x="250.55" y="463.6045">publish</text></g><!--link QGames to GamesWorker--><g id="link_QGames_GamesWorker"><path d="M105.46,496.9994 C82.78,485.8294 54.1,467.3694 40.55,441.1094 C6,374.1294 29.84,340.5094 63.55,273.1094 C68.98,262.2394 73.285,256.14 80.945,247.71 " fill="none" id="QGames-to-GamesWorker" style="stroke:#181818;stroke-width:1;"/><polygon fill="#181818" points="84.98,243.2694,75.9671,247.2403,81.6175,246.9699,81.8879,252.6203,84.98,243.2694" style="stroke:#181818;stroke-width:1;"/><text fill="#000000" font-family="sans-serif" font-size="13" lengthAdjust="spacing" textLength="52.749" x="41.55" y="399.1045">consume</text></g><!--link GamesWorker to GamesDB--><g id="link_GamesWorker_GamesDB"><path d="M92.05,243.4594 C78.76,267.2294 60.84,309.2794 78.55,340.1094 C86.3,353.5994 93.8096,360.9394 107.2596,368.7394 " fill="none" id="GamesWorker-to-GamesDB" style="stroke:#181818;stroke-width:1;"/><polygon fill="#181818" points="112.45,371.7494,106.6711,363.7741,108.1247,369.241,102.6578,370.6946,112.45,371.7494" style="stroke:#181818;stroke-width:1;"/><text fill="#000000" font-family="sans-serif" font-size="13" lengthAdjust="spacing" textLength="39.7617" x="79.55" y="304.1045">update</text><text fill="#000000" font-family="sans-serif" font-size="13" lengthAdjust="spacing" textLength="3.6118" x="119.3117" y="304.1045">&#160;</text><text fill="#000000" font-family="sans-serif" font-size="13" lengthAdjust="spacing" textLength="27.4536" x="122.9235" y="304.1045">stats</text><text fill="#000000" font-family="sans-serif" font-size="13" lengthAdjust="spacing" textLength="3.6118" x="150.3771" y="304.1045">&#160;</text><text fill="#000000" font-family="sans-serif" font-size="13" lengthAdjust="spacing" textLength="3.6118" x="153.989" y="304.1045">/</text><text fill="#000000" font-family="sans-serif" font-size="13" lengthAdjust="spacing" textLength="36.1309" x="82.4445" y="320.4561">create</text><text fill="#000000" font-family="sans-serif" font-size="13" lengthAdjust="spacing" textLength="3.6118" x="118.5754" y="320.4561">&#160;</text><text fill="#000000" font-family="sans-serif" font-size="13" lengthAdjust="spacing" textLength="32.519" x="122.1872" y="320.4561">game</text></g><!--link OutboxG to QPayments--><g id="link_OutboxG_QPayments"><path d="M375.8,417.1494 C390.82,440.9194 410.7652,472.477 423.0352,491.897 " fill="none" id="OutboxG-to-QPayments" style="stroke:#181818;stroke-width:1;"/><polygon fill="#181818" points="426.24,496.9694,424.8143,487.2243,423.5693,492.7424,418.0512,491.4974,426.24,496.9694" style="stroke:#181818;stroke-width:1;"/><text fill="#000000" font-family="sans-serif" font-size="13" lengthAdjust="spacing" textLength="41.1963" x="408.55" y="463.6045">publish</text></g><!--link QPayments to PaymentsWorker--><g id="link_QPayments_PaymentsWorker"><path d="M450.77,525.3494 C480.63,549.7194 539.6925,597.9246 573.5925,625.6046 " fill="none" id="QPayments-to-PaymentsWorker" style="stroke:#181818;stroke-width:1;"/><polygon fill="#181818" points="578.24,629.3994,573.7986,620.6088,574.3671,626.237,568.7388,626.8055,578.24,629.3994" style="stroke:#181818;stroke-width:1;"/><text fill="#000000" font-family="sans-serif" font-size="13" lengthAdjust="spacing" textLength="52.749" x="509.55" y="569.6045">consume</text></g><!--link PaymentsWorker to PaymentsDB--><g id="link_PaymentsWorker_PaymentsDB"><path d="M611.48,667.6894 C630.57,699.2594 666.8256,759.2149 687.7156,793.7649 " fill="none" id="PaymentsWorker-to-PaymentsDB" style="stroke:#181818;stroke-width:1;"/><polygon fill="#181818" points="690.82,798.8994,689.5863,789.1281,688.233,794.6207,682.7404,793.2673,690.82,798.8994" style="stroke:#181818;stroke-width:1;"/><text fill="#000000" font-family="sans-serif" font-size="13" lengthAdjust="spacing" textLength="17.3418" x="703.6123" y="716.6045">set</text><text fill="#000000" font-family="sans-serif" font-size="13" lengthAdjust="spacing" textLength="79.4663" x="672.55" y="732.9561">PAID/FAILED</text><text fill="#000000" font-family="sans-serif" font-size="13" lengthAdjust="spacing" textLength="7.5918" x="688.6191" y="749.3076">+</text><text fill="#000000" font-family="sans-serif" font-size="13" lengthAdjust="spacing" textLength="3.6118" x="696.2109" y="749.3076">&#160;</text><text fill="#000000" font-family="sans-serif" font-size="13" lengthAdjust="spacing" textLength="36.1245" x="699.8227" y="749.3076">liberar</text><text fill="#000000" font-family="sans-serif" font-size="13" lengthAdjust="spacing" textLength="54.9263" x="684.82" y="765.6592">biblioteca</text></g><!--SRC=[ZLNDRXen4BxxAKR9eOag129gbLHg9Nvs8wH69KLfBhcONGDMTksjxMr2gZvD3ptrANYnZktzCMIH2XVxcsz-lfan66uo1XEPbu8dTFTdzrl2IElTNv4eAIZqu1lN5hncYcQ4w4Sk2gfe3df3K_d4nHfMDDCii2GoBwHWmYpC5eChbXWgrbb8ULAqkEUfsS1mE0Zmd3xVCAtfcYtu2uFBqBQaoUDQoLAa4vb91QTnPB-4qCJWzMIISSpP7wKv5oT0DNY0aAO0EBccETFEw4vm6bt6xw8h-4cWBRkYmMW-QwbuGKvA3LrIZP5kf5XBE8Wt7UznlfHcAP_XpDdE7Sr3rrtfxgLwPAeDvk_arvw0ETtcwEDprXUKSH4Fu-cXZCPUAwc1RZ6TiOz8gisXglcHx86m6klKTgUPyidT2GSSnnVHu52LDzQItArRpq6y8qgSBPHnrvKkqE20Li3tafKORd6xWD9QUko7LTXpk7EuRUH4W_4mT5ZRENSuLCivkOpUJwv2XwBgNqXkjs0ydaRnc90ty14_iDYA1D2Yjb18RXaM9lvPGA_tgTti06iQ6c3XtjJHvqZZsZ2HC3ZJcEhSXw_zss3O-3fHcnN18EfUbcahmNVEDwWZV3Km-025hyPJIOrRJjLzf9JBZEiDgO2cF3zA92HIw39d94G34SYWHP5jGVEKzTXgXPkhcqhzoC9AzpHNxpwer9eNXYh3qhuztzg9fWy2VyecYb73BFYLuQ2noIcf0pX9FbaWoGDDSrz92j5W1CWe2tmI3BIXM7SV4fVQBMOxwL8b6_jcsXdD13SSYUb_IJrqsXVJx6-Wfy72lNYbwi2mlqF8qmnpZsRJVZoQVOwc3-8jP7o9VsGAbXmpISCIIlu1]--></g></svg>