<svg xmlns="http://www.w3.org/2000/svg" xmlns:xlink="http://www.w3.org/1999/xlink" contentStyleType="text/css" height="910px" preserveAspectRatio="none" style="width:940px;height:910px;background:#FEFEFE;" version="1.1" viewBox="0 0 940 910" width="940px" zoomAndPan="magnify"><title>Compra &#8594; Pagamento &#8594; Biblioteca liberada</title><defs/><g><rect fill="#FEFEFE" height="910" style="stroke:none;stroke-width:1;" width="940" x="0" y="0"/><text fill="#000000" font-family="sans-serif" font-size="14" font-weight="bold" lengthAdjust="spacing" textLength="293.4326" x="319.3267" y="29.5332">Compra &#8594; Pagamento &#8594; Biblioteca liberada</text><rect fill="#E8F5E9" height="859.7109" style="stroke:#181818;stroke-width:0.5;" width="350.875" x="116.7295" y="44.6094"/><text fill="#000000" font-family="sans-serif" font-size="13" font-weight="bold" lengthAdjust="spacing" textLength="95.3608" x="244.4866" y="58.1045">Games Context</text><rect fill="#ECEFF1" height="859.7109" style="stroke:#181818;stroke-width:0.5;" width="132.2891" x="485.6045" y="44.6094"/><text fill="#000000" font-family="sans-serif" font-size="13" font-weight="bold" lengthAdjust="spacing" textLength="27.4536" x="538.0222" y="58.1045">SQS</text><rect fill="#E3F2FD" height="859.7109" style="stroke:#181818;stroke-width:0.5;" width="288.1924" x="635.8936" y="44.6094"/><text fill="#000000" font-family="sans-serif" font-size="13" font-weight="bold" lengthAdjust="spacing" textLength="113.4199" x="723.2798" y="58.1045">Payments Context</text><rect fill="#FFFFFF" height="140.1094" style="stroke:#181818;stroke-width:1;" width="10" x="173.519" y="237.9766"/><rect fill="#FFFFFF" height="156.4609" style="stroke:#181818;stroke-width:1;" width="10" x="712.5176" y="580.1953"/><line style="stroke:#181818;stroke-width:0.5;stroke-dasharray:5.0,5.0;" x1="25" x2="25" y1="128.5703" y2="823.7109"/><line style="stroke:#181818;stroke-width:0.5;stroke-dasharray:5.0,5.0;" x1="177.7295" x2="177.7295" y1="128.5703" y2="823.7109"/><line style="stroke:#181818;stroke-width:0.5;stroke-dasharray:5.0,5.0;" x1="294.3086" x2="294.3086" y1="128.5703" y2="823.7109"/><line style="stroke:#181818;stroke-width:0.5;stroke-dasharray:5.0,5.0;" x1="408.1289" x2="408.1289" y1="128.5703" y2="823.7109"/><line style="stroke:#181818;stroke-width:0.5;stroke-dasharray:5.0,5.0;" x1="551.6045" x2="551.6045" y1="128.5703" y2="823.7109"/><line style="stroke:#181818;stroke-width:0.5;stroke-dasharray:5.0,5.0;" x1="716.8936" x2="716.8936" y1="128.5703" y2="823.7109"/><line style="stroke:#181818;stroke-width:0.5;stroke-dasharray:5.0,5.0;" x1="862.1416" x2="862.1416" y1="128.5703" y2="823.7109"/><text fill="#000000" font-family="sans-serif" font-size="14" lengthAdjust="spacing" textLength="35.793" x="5" y="125.4941">Client</text><ellipse cx="25.8965" cy="59.4609" fill="#2196F3" rx="8" ry="8" style="stroke:#181818;stroke-width:0.5;"/><path d="M25.8965,67.4609 L25.8965,94.4609 M12.8965,75.4609 L38.8965,75.4609 M25.8965,94.4609 L12.8965,109.4609 M25.8965,94.4609 L38.8965,109.4609 " fill="none" style="stroke:#181818;stroke-width:0.5;"/><text fill="#000000" font-family="sans-serif" font-size="14" lengthAdjust="spacing" textLength="35.793" x="5" y="837.2441">Client</text><ellipse cx="25.8965" cy="848.8203" fill="#2196F3" rx="8" ry="8" style="stroke:#181818;stroke-width:0.5;"/><path d="M25.8965,856.8203 L25.8965,883.8203 M12.8965,864.8203 L38.8965,864.8203 M25.8965,883.8203 L12.8965,898.8203 M25.8965,883.8203 L38.8965,898.8203 " fill="none" style="stroke:#181818;stroke-width:0.5;"/><rect fill="#C8E6C9" height="31.6094" rx="2.5" ry="2.5" style="stroke:#181818;stroke-width:0.5;" width="85.5791" x="135.7295" y="95.9609"/><text fill="#000000" font-family="sans-serif" font-size="14" lengthAdjust="spacing" textLength="71.5791" x="142.7295" y="117.4941">Games API</text><rect fill="#C8E6C9" height="31.6094" rx="2.5" ry="2.5" style="stroke:#181818;stroke-width:0.5;" width="85.5791" x="135.7295" y="822.7109"/><text fill="#000000" font-family="sans-serif" font-size="14" lengthAdjust="spacing" textLength="71.5791" x="142.7295" y="844.2441">Games API</text><text fill="#000000" font-family="sans-serif" font-size="14" lengthAdjust="spacing" textLength="91.8203" x="246.3086" y="125.4941">Mongo Games</text><path d="M277.2188,74.9609 C277.2188,64.9609 295.2188,64.9609 295.2188,64.9609 C295.2188,64.9609 313.2188,64.9609 313.2188,74.9609 L313.2188,100.9609 C313.2188,110.9609 295.2188,110.9609 295.2188,110.9609 C295.2188,110.9609 277.2188,110.9609 277.2188,100.9609 L277.2188,74.9609 " fill="#4CAF50" style="stroke:#181818;stroke-width:1.5;"/><path d="M277.2188,74.9609 C277.2188,84.9609 295.2188,84.9609 295.2188,84.9609 C295.2188,84.9609 313.2188,84.9609 313.2188,74.9609 " fill="none" style="stroke:#181818;stroke-width:1.5;"/><text fill="#000000" font-family="sans-serif" font-size="14" lengthAdjust="spacing" textLength="91.8203" x="246.3086" y="837.2441">Mongo Games</text><path d="M277.2188,850.3203 C277.2188,840.3203 295.2188,840.3203 295.2188,840.3203 C295.2188,840.3203 313.2188,840.3203 313.2188,850.3203 L313.2188,876.3203 C313.2188,886.3203 295.2188,886.3203 295.2188,886.3203 C295.2188,886.3203 277.2188,886.3203 277.2188,876.3203 L277.2188,850.3203 " fill="#4CAF50" style="stroke:#181818;stroke-width:1.5;"/><path d="M277.2188,850.3203 C277.2188,860.3203 295.2188,860.3203 295.2188,860.3203 C295.2188,860.3203 313.2188,860.3203 313.2188,850.3203 " fill="none" style="stroke:#181818;stroke-width:1.5;"/><text fill="#000000" font-family="sans-serif" font-size="14" lengthAdjust="spacing" textLength="103.4756" x="354.1289" y="125.4941">Outbox (Games)</text><path d="M390.8667,74.9609 C390.8667,64.9609 408.8667,64.9609 408.8667,64.9609 C408.8667,64.9609 426.8667,64.9609 426.8667,74.9609 L426.8667,100.9609 C426.8667,110.9609 408.8667,110.9609 408.8667,110.9609 C408.8667,110.9609 390.8667,110.9609 390.8667,100.9609 L390.8667,74.9609 " fill="#A5D6A7" style="stroke:#181818;stroke-width:1.5;"/><path d="M390.8667,74.9609 C390.8667,84.9609 408.8667,84.9609 408.8667,84.9609 C408.8667,84.9609 426.8667,84.9609 426.8667,74.9609 " fill="none" style="stroke:#181818;stroke-width:1.5;"/><text fill="#000000" font-family="sans-serif" font-size="14" lengthAdjust="spacing" textLength="103.4756" x="354.1289" y="837.2441">Outbox (Games)</text><path d="M390.8667,850.3203 C390.8667,840.3203 408.8667,840.3203 408.8667,840.3203 C408.8667,840.3203 426.8667,840.3203 426.8667,850.3203 L426.8667,876.3203 C426.8667,886.3203 408.8667,886.3203 408.8667,886.3203 C408.8667,886.3203 390.8667,886.3203 390.8667,876.3203 L390.8667,850.3203 " fill="#A5D6A7" style="stroke:#181818;stroke-width:1.5;"/><path d="M390.8667,850.3203 C390.8667,860.3203 408.8667,860.3203 408.8667,860.3203 C408.8667,860.3203 426.8667,860.3203 426.8667,850.3203 " fill="none" style="stroke:#181818;stroke-width:1.5;"/><path d="M494.6045,100.9609 L608.8936,100.9609 C613.8936,100.9609 613.8936,114.7656 613.8936,114.7656 C613.8936,114.7656 613.8936,128.5703 608.8936,128.5703 L494.6045,128.5703 C489.6045,128.5703 489.6045,114.7656 489.6045,114.7656 C489.6045,114.7656 489.6045,100.9609 494.6045,100.9609 " fill="#BBDEFB" style="stroke:#181818;stroke-width:0.5;"/><path d="M608.8936,100.9609 C603.8936,100.9609 603.8936,114.7656 603.8936,114.7656 C603.8936,128.5703 608.8936,128.5703 608.8936,128.5703 " fill="none" style="stroke:#181818;stroke-width:0.5;"/><text fill="#000000" font-family="sans-serif" font-size="14" lengthAdjust="spacing" textLength="104.2891" x="494.6045" y="120.4941">payments-queue</text><path d="M494.6045,822.7109 L608.8936,822.7109 C613.8936,822.7109 613.8936,836.5156 613.8936,836.5156 C613.8936,836.5156 613.8936,850.3203 608.8936,850.3203 L494.6045,850.3203 C489.6045,850.3203 489.6045,836.5156 489.6045,836.5156 C489.6045,836.5156 489.6045,822.7109 494.6045,822.7109 " fill="#BBDEFB" style="stroke:#181818;stroke-width:0.5;"/><path d="M608.8936,822.7109 C603.8936,822.7109 603.8936,836.5156 603.8936,836.5156 C603.8936,850.3203 608.8936,850.3203 608.8936,850.3203 " fill="none" style="stroke:#181818;stroke-width:0.5;"/><text fill="#000000" font-family="sans-serif" font-size="14" lengthAdjust="spacing" textLength="104.2891" x="494.6045" y="842.2441">payments-queue</text><rect fill="#64B5F6" height="31.6094" rx="2.5" ry="2.5" style="stroke:#181818;stroke-width:0.5;" width="125.248" x="654.8936" y="95.9609"/><text fill="#000000" font-family="sans-serif" font-size="14" lengthAdjust="spacing" textLength="111.248" x="661.8936" y="117.4941">Payments Worker</text><rect fill="#64B5F6" height="31.6094" rx="2.5" ry="2.5" style="stroke:#181818;stroke-width:0.5;" width="125.248" x="654.8936" y="822.7109"/><text fill="#000000" font-family="sans-serif" font-size="14" lengthAdjust="spacing" textLength="111.248" x="661.8936" y="844.2441">Payments Worker</text><text fill="#000000" font-family="sans-serif" font-size="14" lengthAdjust="spacing" textLength="108.9443" x="805.1416" y="125.4941">Mongo Payments</text><path d="M844.6138,74.9609 C844.6138,64.9609 862.6138,64.9609 862.6138,64.9609 C862.6138,64.9609 880.6138,64.9609 880.6138,74.9609 L880.6138,100.9609 C880.6138,110.9609 862.6138,110.9609 862.6138,110.9609 C862.6138,110.9609 844.6138,110.9609 844.6138,100.9609 L844.6138,74.9609 " fill="#2196F3" style="stroke:#181818;stroke-width:1.5;"/><path d="M844.6138,74.9609 C844.6138,84.9609 862.6138,84.9609 862.6138,84.9609 C862.6138,84.9609 880.6138,84.9609 880.6138,74.9609 " fill="none" style="stroke:#181818;stroke-width:1.5;"/><text fill="#000000" font-family="sans-serif" font-size="14" lengthAdjust="spacing" textLength="108.9443" x="805.1416" y="837.2441">Mongo Payments</text><path d="M844.6138,850.3203 C844.6138,840.3203 862.6138,840.3203 862.6138,840.3203 C862.6138,840.3203 880.6138,840.3203 880.6138,850.3203 L880.6138,876.3203 C880.6138,886.3203 862.6138,886.3203 862.6138,886.3203 C862.6138,886.3203 844.6138,886.3203 844.6138,876.3203 L844.6138,850.3203 " fill="#2196F3" style="stroke:#181818;stroke-width:1.5;"/><path d="M844.6138,850.3203 C844.6138,860.3203 862.6138,860.3203 862.6138,860.3203 C862.6138,860.3203 880.6138,860.3203 880.6138,850.3203 " fill="none" style="stroke:#181818;stroke-width:1.5;"/><rect fill="#FFFFFF" height="140.1094" style="stroke:#181818;stroke-width:1;" width="10" x="173.519" y="237.9766"/><rect fill="#FFFFFF" height="156.4609" style="stroke:#181818;stroke-width:1;" width="10" x="712.5176" y="580.1953"/><rect fill="#EEEEEE" height="3" style="stroke:#EEEEEE;stroke-width:1;" width="933.0859" x="0" y="159.7461"/><line style="stroke:#000000;stroke-width:1;" x1="0" x2="933.0859" y1="159.7461" y2="159.7461"/><line style="stroke:#000000;stroke-width:1;" x1="0" x2="933.0859" y1="162.7461" y2="162.7461"/><rect fill="#EEEEEE" height="24.3516" style="stroke:#000000;stroke-width:2;" width="152.6836" x="390.2012" y="148.5703"/><text fill="#000000" font-family="sans-serif" font-size="13" font-weight="bold" lengthAdjust="spacing" textLength="135.0718" x="396.2012" y="166.0654">1. Compra (PENDING)</text><polygon fill="#181818" points="161.519,233.9766,171.519,237.9766,161.519,241.9766,165.519,237.9766" style="stroke:#181818;stroke-width:1;"/><line style="stroke:#181818;stroke-width:2;" x1="25.8965" x2="167.519" y1="237.9766" y2="237.9766"/><text fill="#000000" font-family="sans-serif" font-size="13" lengthAdjust="spacing" textLength="35.3945" x="32.8965" y="200.417">POST</text><text fill="#000000" font-family="sans-serif" font-size="13" lengthAdjust="spacing" textLength="128.6226" x="32.8965" y="216.7686">/games/api/Purchases</text><text fill="#000000" font-family="sans-serif" font-size="13" lengthAdjust="spacing" textLength="52.019" x="32.8965" y="233.1201">(gameId)</text><polygon fill="#181818" points="283.2188,297.0313,293.2188,301.0313,283.2188,305.0313,287.2188,301.0313" style="stroke:#181818;stroke-width:1;"/><line style="stroke:#181818;stroke-width:2;" x1="183.519" x2="289.2188" y1="301.0313" y2="301.0313"/><text fill="#000000" font-family="sans-serif" font-size="13" lengthAdjust="spacing" textLength="36.1309" x="190.519" y="263.4717">create</text><text fill="#000000" font-family="sans-serif" font-size="13" lengthAdjust="spacing" textLength="54.9199" x="190.519" y="279.8232">Purchase</text><text fill="#000000" font-family="sans-serif" font-size="13" lengthAdjust="spacing" textLength="67.8882" x="190.519" y="296.1748">(PENDING)</text><polygon fill="#181818" points="396.8667,343.7344,406.8667,347.7344,396.8667,351.7344,400.8667,347.7344" style="stroke:#181818;stroke-width:1;"/><line style="stroke:#181818;stroke-width:2;" x1="183.519" x2="402.8667" y1="347.7344" y2="347.7344"/><text fill="#000000" font-family="sans-serif" font-size="13" lengthAdjust="spacing" textLength="38.2891" x="190.519" y="326.5264">persist</text><text fill="#000000" font-family="sans-serif" font-size="13" lengthAdjust="spacing" textLength="96.8335" x="190.519" y="342.8779">PaymentInitiated</text><polygon fill="#181818" points="36.8965,374.0859,26.8965,378.0859,36.8965,382.0859,32.8965,378.0859" style="stroke:#181818;stroke-width:1;"/><line style="stroke:#181818;stroke-width:2;stroke-dasharray:2.0,2.0;" x1="30.8965" x2="177.519" y1="378.0859" y2="378.0859"/><text fill="#000000" font-family="sans-serif" font-size="13" lengthAdjust="spacing" textLength="21.6899" x="42.8965" y="373.2295">202</text><text fill="#000000" font-family="sans-serif" font-size="13" lengthAdjust="spacing" textLength="3.6118" x="64.5864" y="373.2295">&#160;</text><text fill="#000000" font-family="sans-serif" font-size="13" lengthAdjust="spacing" textLength="54.2026" x="68.1982" y="373.2295">Accepted</text><rect fill="#EEEEEE" height="3" style="stroke:#EEEEEE;stroke-width:1;" width="933.0859" x="0" y="407.2617"/><line style="stroke:#000000;stroke-width:1;" x1="0" x2="933.0859" y1="407.2617" y2="407.2617"/><line style="stroke:#000000;stroke-width:1;" x1="0" x2="933.0859" y1="410.2617" y2="410.2617"/><rect fill="#EEEEEE" height="24.3516" style="stroke:#000000;stroke-width:2;" width="172.958" x="380.064" y="396.0859"/><text fill="#000000" font-family="sans-serif" font-size="13" font-weight="bold" lengthAdjust="spacing" textLength="155.3462" x="386.064" y="413.5811">2. Publica&#231;&#227;o ass&#237;ncrona</text><path d="M352,435.4375 L352,461.4375 L606,461.4375 L606,445.4375 L596,435.4375 L352,435.4375 " fill="#FEFFDD" style="stroke:#181818;stroke-width:0.5;"/><path d="M596,435.4375 L596,445.4375 L606,445.4375 L596,435.4375 " fill="#FEFFDD" style="stroke:#181818;stroke-width:0.5;"/><text fill="#000000" font-family="sans-serif" font-size="13" lengthAdjust="spacing" textLength="179.9307" x="384.917" y="453.9326">Outbox Publisher (background)</text><polygon fill="#181818" points="539.749,501.4922,549.749,505.4922,539.749,509.4922,543.749,505.4922" style="stroke:#181818;stroke-width:1;"/><line style="stroke:#181818;stroke-width:2;" x1="408.8667" x2="545.749" y1="505.4922" y2="505.4922"/><text fill="#000000" font-family="sans-serif" font-size="13" lengthAdjust="spacing" textLength="41.1963" x="415.8667" y="484.2842">publish</text><text fill="#000000" font-family="sans-serif" font-size="13" lengthAdjust="spacing" textLength="96.8335" x="415.8667" y="500.6357">PaymentInitiated</text><rect fill="#EEEEEE" height="3" style="stroke:#EEEEEE;stroke-width:1;" width="933.0859" x="0" y="534.668"/><line style="stroke:#000000;stroke-width:1;" x1="0" x2="933.0859" y1="534.668" y2="534.668"/><line style="stroke:#000000;stroke-width:1;" x1="0" x2="933.0859" y1="537.668" y2="537.668"/><rect fill="#EEEEEE" height="24.3516" style="stroke:#000000;stroke-width:2;" width="221.3335" x="355.8762" y="523.4922"/><text fill="#000000" font-family="sans-serif" font-size="13" font-weight="bold" lengthAdjust="spacing" textLength="203.7217" x="361.8762" y="540.9873">3. Processamento do pagamento</text><polygon fill="#181818" points="700.5176,576.1953,710.5176,580.1953,700.5176,584.1953,704.5176,580.1953" style="stroke:#181818;stroke-width:1;"/><line style="stroke:#181818;stroke-width:2;" x1="551.749" x2="706.5176" y1="580.1953" y2="580.1953"/><text fill="#000000" font-family="sans-serif" font-size="13" lengthAdjust="spacing" textLength="99.7153" x="558.749" y="575.3389">ReceiveMessage</text><polygon fill="#181818" points="850.6138,639.25,860.6138,643.25,850.6138,647.25,854.6138,643.25" style="stroke:#181818;stroke-width:1;"/><line style="stroke:#181818;stroke-width:2;" x1="722.5176" x2="856.6138" y1="643.25" y2="643.25"/><text fill="#000000" font-family="sans-serif" font-size="13" lengthAdjust="spacing" textLength="45.519" x="729.5176" y="605.6904">process</text><text fill="#000000" font-family="sans-serif" font-size="13" lengthAdjust="spacing" textLength="3.6118" x="775.0366" y="605.6904">&#160;</text><text fill="#000000" font-family="sans-serif" font-size="13" lengthAdjust="spacing" textLength="7.5918" x="778.6484" y="605.6904">+</text><text fill="#000000" font-family="sans-serif" font-size="13" lengthAdjust="spacing" textLength="3.6118" x="786.2402" y="605.6904">&#160;</text><text fill="#000000" font-family="sans-serif" font-size="13" lengthAdjust="spacing" textLength="17.3418" x="789.8521" y="605.6904">set</text><text fill="#000000" font-family="sans-serif" font-size="13" lengthAdjust="spacing" textLength="34.6836" x="729.5176" y="622.042">status</text><text fill="#000000" font-family="sans-serif" font-size="13" lengthAdjust="spacing" textLength="88.1245" x="729.5176" y="638.3936">(PAID/FAILED)</text><polygon fill="#181818" points="850.6138,702.3047,860.6138,706.3047,850.6138,710.3047,854.6138,706.3047" style="stroke:#181818;stroke-width:1;"/><line style="stroke:#181818;stroke-width:2;" x1="722.5176" x2="856.6138" y1="706.3047" y2="706.3047"/><text fill="#000000" font-family="sans-serif" font-size="13" lengthAdjust="spacing" textLength="36.1245" x="729.5176" y="668.7451">liberar</text><text fill="#000000" font-family="sans-serif" font-size="13" lengthAdjust="spacing" textLength="54.9263" x="729.5176" y="685.0967">biblioteca</text><text fill="#000000" font-family="sans-serif" font-size="13" lengthAdjust="spacing" textLength="3.6118" x="784.4438" y="685.0967">&#160;</text><text fill="#000000" font-family="sans-serif" font-size="13" lengthAdjust="spacing" textLength="14.46" x="788.0557" y="685.0967">do</text><text fill="#000000" font-family="sans-serif" font-size="13" lengthAdjust="spacing" textLength="42.6372" x="729.5176" y="701.4482">usu&#225;rio</text><polygon fill="#181818" points="562.749,732.6563,552.749,736.6563,562.749,740.6563,558.749,736.6563" style="stroke:#181818;stroke-width:1;"/><line style="stroke:#181818;stroke-width:2;" x1="556.749" x2="716.5176" y1="736.6563" y2="736.6563"/><text fill="#000000" font-family="sans-serif" font-size="13" lengthAdjust="spacing" textLength="90.3271" x="568.749" y="731.7998">DeleteMessage</text><path d="M722,749.6563 L722,808.6563 L925,808.6563 L925,759.6563 L915,749.6563 L722,749.6563 " fill="#FEFFDD" style="stroke:#181818;stroke-width:0.5;"/><path d="M915,749.6563 L915,759.6563 L925,759.6563 L915,749.6563 " fill="#FEFFDD" style="stroke:#181818;stroke-width:0.5;"/><text fill="#000000" font-family="sans-serif" font-size="13" lengthAdjust="spacing" textLength="159.6626" x="728" y="768.1514">Payments Worker processa</text><text fill="#000000" font-family="sans-serif" font-size="13" lengthAdjust="spacing" textLength="145.2407" x="728" y="784.5029">a compra e libera acesso</text><text fill="#000000" font-family="sans-serif" font-size="13" lengthAdjust="spacing" textLength="182.8252" x="728" y="800.8545">&#224; biblioteca no mesmo contexto</text><!--SRC=[XLHRRXen5FttAgwO7r2R44YW18bA0pCJ8JN9f4Jgj_4uO07srFRaqGLq0Lr1gtxqgwjW9rr9h-S10urKZJIIxpq-zzoNhR1h3XErIJM5Fr-_GKmNTCEbLVbfBEPheInd5DPYpZLDA25c9MHADTs0MT94FGcvW0UwDhpcsT3dQsuCNV2P-C9XS5RppIbRBRJAP39HQwN1YqBtrNdvvunBndsjrTFzKh2LH3BerY3ujuA9b4eRqoHn6ZgzUX3rNDa7X51cCT1aBJ0pyBgTotvqJWXYe765wHgiWBJysJR02mTHBxmaK8zGeVnusW1g83_X0Rp98EnF73gXbiwfuT2uLdAX2iWU78p1kvZuKU_i07kRMIUYcMDQERmmNO7dzuA-_uvmcRXaIhMpkvdJE0cZg8DCMAOCQLBwudfcJl9pJdCNbpRmnkCWZCP7H3jtBVFpg1i5nvdlW9-KNd6TarUsmWHU_sBSY_glLA427jnojIXRiDCq6a7dj9h3PXpU1DERgnQCHeIKNJjvlolx4EBRsJsqtQIQDar5EyuqMs9S0qrdd2OjrtBnI2tVtI9arxQAAnWFWMdkK1N3FlW1lEpA45AkZJ2sIcOgXHLuFwcX4Lve7aBth0i-OpnrY8I_eWaJxvvYTDmpHhU_jZyLbifiVqkcbQHv0IGk8AX7B7Ifuks-kyFILZ2O9OAQ-_rgaMgQK5FjJbg0_qt2oJb7ELenjxt5Gv0ed8ZgLN22zhE5j8UpC8IFd77noCljtxVX44V8qGpLc5nNqa81lC6tm8Anr6ROszYV1kt8dtu8WzP_28hdIiDy_u9X7fd9jZ-qKA-5hzKdu6jkTodK-dQSHDuQBHPB2-hXs0jmj3jLLXHT55WnxBoK2jIv5Bgst-kgfGASbOr2VBweAbyQ5vZy1G00]--></g></svg>